<?xml version="1.0" encoding="UTF-8"?>
<svg id="Layer_2" xmlns="http://www.w3.org/2000/svg" viewBox="0 0 153.08 190.86">
  <defs>
    <style>
      .cls-1 {
        fill: #235638;
      }

      .cls-2 {
        fill: #91b735;
      }

      .cls-3 {
        fill: #9dc947;
      }

      .cls-4 {
        fill: #2f724c;
      }
    </style>
  </defs>
  <g id="OBJECTS">
    <g>
      <g>
        <path class="cls-3" d="M144.14,146.11c5.09-9.29,8.38-19.72,8.95-31.01-2.56-.04-5.23-.15-7.98-.32-18.23-1.17-32.82-4.94-32.6-8.44.22-3.49,15.18-5.38,33.41-4.21,2.26.14,4.47.33,6.6.55-1.74-11.76-6.83-22.09-13.6-31.42-12.32,4.65-21.93,6.39-23.09,3.84-1.06-2.35,5.34-7.67,15.42-13.31-6.64-7.46-14.09-14.31-21.31-20.84-9.16,11.22-17.56,18.37-19.96,16.59-2.46-1.83,2.25-12.48,10.76-24.95-11.52-10.66-21.06-20.74-23.55-31.62,0,0,0,0,0,0-.44-1.67-1.09-.87-1.28,0h0c-2.5,10.88-12.03,20.96-23.55,31.61,8.52,12.48,13.23,23.13,10.76,24.95-2.39,1.77-10.8-5.37-19.96-16.59-7.22,6.53-14.66,13.38-21.31,20.84,10.08,5.64,16.48,10.97,15.42,13.31-1.15,2.55-10.77.81-23.09-3.84-6.77,9.34-11.86,19.66-13.6,31.42,2.13-.22,4.34-.4,6.6-.55,18.23-1.17,33.18.72,33.41,4.21.22,3.49-14.37,7.27-32.6,8.44-2.75.18-5.42.28-7.98.32.57,11.28,3.86,21.72,8.95,31.01,12.68-6.5,23.02-9.61,24.49-7.06,1.45,2.51-6.16,9.73-17.82,17.33,6.11,8.06,13.55,14.95,21.48,20.4.18-.41.36-.81.55-1.22,7.52-16.64,16.21-28.97,19.4-27.53,3.19,1.44-.32,16.1-7.85,32.75-.38.84-.76,1.66-1.15,2.48,9.82,4.91,19.8,7.6,28.5,7.6s18.68-2.69,28.5-7.6c-.38-.82-.77-1.64-1.15-2.48-7.52-16.64-11.04-31.3-7.85-32.75,3.19-1.44,11.87,10.88,19.4,27.53.19.41.37.82.55,1.22,7.93-5.45,15.37-12.34,21.48-20.4-11.67-7.6-19.27-14.82-17.82-17.33,1.47-2.55,11.81.56,24.49,7.06Z"/>
        <path class="cls-2" d="M48.05,183.26c4.92,2.46,9.87,4.36,14.69,5.65L97.73,53.86c-3.69,3.15-6.52,4.6-7.75,3.68-2.46-1.83,2.25-12.48,10.76-24.95-11.52-10.66-21.06-20.74-23.55-31.62,0,0,0,0,0,0-.44-1.67-1.09-.87-1.28,0h0c-2.5,10.88-12.03,20.96-23.55,31.61,8.52,12.48,13.23,23.13,10.76,24.95-2.39,1.77-10.8-5.37-19.96-16.59-7.22,6.53-14.66,13.38-21.31,20.84,10.08,5.64,16.48,10.97,15.42,13.31-1.15,2.55-10.77.81-23.09-3.84-6.77,9.34-11.86,19.66-13.6,31.42,2.13-.22,4.34-.4,6.6-.55,18.23-1.17,33.18.72,33.41,4.21.22,3.49-14.37,7.27-32.6,8.44-2.75.18-5.42.28-7.98.32.57,11.28,3.86,21.72,8.95,31.01,12.68-6.5,23.02-9.61,24.49-7.06,1.45,2.51-6.16,9.73-17.82,17.33,6.11,8.06,13.55,14.95,21.48,20.4.18-.41.36-.81.55-1.22,7.52-16.64,16.21-28.97,19.4-27.53,3.19,1.44-.32,16.1-7.85,32.75-.38.84-.76,1.66-1.15,2.48Z"/>
      </g>
      <g>
        <path class="cls-4" d="M76.54,190.86c.15,0,.3,0,.45,0v-44.22l23.75-18.95c.19-.15.23-.44.07-.63-.15-.19-.44-.22-.63-.07l-23.2,18.5v-34.52l14.25-11.37c.19-.15.23-.44.07-.63-.15-.19-.44-.22-.63-.07l-13.69,10.92v-26.94l23.75-18.95c.19-.15.23-.44.07-.63-.15-.19-.44-.22-.63-.07l-23.2,18.5V.42c-.31-.66-.66-.46-.9,0v81.32l-23.2-18.5c-.19-.15-.47-.12-.63.07s-.12.48.07.63l23.75,18.95v26.94l-13.69-10.92c-.19-.15-.47-.12-.63.07-.15.19-.12.47.07.63l14.25,11.37v34.52l-23.2-18.5c-.19-.15-.47-.12-.63.07-.15.19-.12.47.07.63l23.75,18.95v44.22c.15,0,.3,0,.45,0Z"/>
        <g>
          <path class="cls-1" d="M76.99,133.88v-22.91l7.48-5.97.37-1.44-7.86,6.27v-26.94l16.66-13.29.37-1.44-17.03,13.59V.42s0,0,0,0c-.04-.08-.07-.14-.11-.2,0,0,0-.01-.01-.02-.04-.05-.07-.09-.11-.12,0,0,0,0,0,0-.08-.07-.16-.09-.24-.08,0,0,0,0,0,0-.04,0-.07.02-.11.04,0,0,0,0,0,0-.11.07-.21.2-.3.37h0v81.32l-23.2-18.5c-.19-.15-.47-.12-.63.07s-.12.48.07.63l23.75,18.95v26.94l-13.69-10.92c-.19-.15-.47-.12-.63.07-.15.19-.12.47.07.63l14.25,11.37v26.36l.9-3.46Z"/>
          <path class="cls-1" d="M74.34,144.09l-21.44-17.11c-.19-.15-.47-.12-.63.07-.15.19-.12.47.07.63l21.76,17.36.25-.95Z"/>
        </g>
      </g>
    </g>
  </g>
</svg>