<?xml version="1.0" encoding="UTF-8"?>
<svg id="Layer_2" xmlns="http://www.w3.org/2000/svg" viewBox="0 0 63.29 247.87">
  <defs>
    <style>
      .cls-1 {
        fill: #9dc947;
      }

      .cls-2 {
        fill: #2a6341;
      }

      .cls-3 {
        fill: #87a52b;
      }

      .cls-4 {
        fill: #2f724c;
      }
    </style>
  </defs>
  <g id="OBJECTS">
    <g>
      <g>
        <path class="cls-4" d="M31.64,0s-71.2,176.68,0,247.87C102.84,176.68,31.64,0,31.64,0Z"/>
        <path class="cls-2" d="M31.64,0S-24.28,138.78,12.57,219.91L52.2,66.97C43.08,28.38,31.64,0,31.64,0Z"/>
      </g>
      <g>
        <path class="cls-1" d="M62.79,135.65c-.03-.5-.06-1.01-.09-1.51l-30.49,30.49v-54.78l24.06-24.06c-.09-.45-.17-.9-.26-1.34l-23.79,23.79v-54.77l13-13c-.12-.42-.24-.83-.36-1.24l-12.64,12.64V1.45c-.37-.95-.57-1.45-.57-1.45,0,0-.2.5-.57,1.45v50.42l-12.64-12.64c-.12.41-.24.83-.36,1.24l13,13v54.77l-23.79-23.79c-.09.45-.18.89-.26,1.34l24.05,24.05v54.78L.59,134.14c-.03.5-.07,1.01-.09,1.51l30.58,30.58v54.78l-26.91-26.92c.15.69.31,1.38.47,2.07l26.45,26.45v24.67c.19.19.38.39.57.58.19-.19.38-.39.57-.58v-24.67l26.45-26.45c.16-.69.31-1.38.47-2.07l-26.92,26.92v-54.78l30.58-30.58Z"/>
        <g>
          <path class="cls-3" d="M31.5.37c-.03.08-.08.19-.12.3-.02.06-.04.1-.07.17-.04.1-.09.23-.13.34-.03.09-.07.17-.1.26v50.42l-12.64-12.64c-.12.41-.24.82-.36,1.24l13,13v54.77l-23.79-23.79c-.09.45-.17.9-.26,1.34l24.05,24.05v38.65l1.14-4.38v-34.27l11.98-11.98.56-2.17-12.55,12.55v-54.77l13-13c-.12-.42-.24-.83-.36-1.24l-12.64,12.64V1.45s-.02-.05-.03-.07c-.07-.18-.14-.35-.19-.5,0-.02-.02-.05-.03-.07-.06-.15-.11-.27-.15-.38,0-.02-.02-.06-.03-.08-.03-.07-.05-.12-.07-.17-.04-.11-.07-.18-.07-.18,0,0-.05.12-.14.35,0,0,0,.01,0,.02Z"/>
          <path class="cls-3" d="M.5,135.66l26.92,26.92.33-1.28L.59,134.15c-.03.5-.06,1.01-.09,1.51Z"/>
          <path class="cls-3" d="M4.64,196.18l11.18,11.18.33-1.28-11.97-11.97c.15.69.3,1.38.46,2.06Z"/>
        </g>
      </g>
    </g>
  </g>
</svg>