<?xml version="1.0" encoding="UTF-8"?>
<svg id="Layer_2" xmlns="http://www.w3.org/2000/svg" viewBox="0 0 130.92 252.88">
  <defs>
    <style>
      .cls-1 {
        fill: #5d8139;
      }

      .cls-2 {
        fill: #52702f;
      }

      .cls-3 {
        fill: #9dc947;
      }

      .cls-4 {
        fill: #87a52b;
      }
    </style>
  </defs>
  <g id="OBJECTS">
    <g>
      <g>
        <g>
          <g>
            <path class="cls-1" d="M65.46,0s-45.73,46.84,0,92.58c45.73-45.73,0-92.58,0-92.58Z"/>
            <path class="cls-2" d="M65.46,0s-42.46,43.51-4.61,87.6l17.7-68.33C72.72,7.44,65.46,0,65.46,0Z"/>
          </g>
          <g>
            <path class="cls-3" d="M78.14,18.43c-.15-.29-.3-.57-.44-.86l-11.77,11.77V.49c-.29-.32-.46-.49-.46-.49,0,0-.17.17-.46.49v28.85l-11.77-11.77c-.15.28-.3.57-.44.86l12.22,12.22v11.16l-15.64-15.64c-.12.31-.24.63-.35.95l15.99,15.99v21.97l-19.78-19.78c-.02.42-.04.83-.05,1.25l19.83,19.83v11.16l-18.86-18.86c.11.55.23,1.1.36,1.66l18.5,18.5v13.26c.16.16.3.32.46.48.16-.16.3-.32.46-.48v-13.26l18.5-18.5c.13-.55.25-1.11.36-1.66l-18.86,18.86v-11.15l19.83-19.83c-.01-.42-.03-.84-.05-1.25l-19.78,19.78v-21.97l15.99-15.99c-.12-.32-.23-.64-.35-.95l-15.64,15.64v-11.16l12.22-12.22Z"/>
            <g>
              <path class="cls-4" d="M65.92,30.65l12.22-12.22c-.15-.29-.3-.57-.44-.86l-11.77,11.77V.49c-.29-.32-.46-.49-.46-.49,0,0-.17.17-.46.49v28.85l-11.77-11.77c-.15.28-.3.57-.44.86l12.22,12.22v11.16l-15.64-15.64c-.12.31-.24.63-.35.95l15.99,15.99v21.97l-19.78-19.78c-.02.42-.04.83-.05,1.25l19.83,19.83v5.21l.92-3.56v-1.65l.58-.58.46-1.76-1.03,1.03v-21.97l8.72-8.72.46-1.76-9.17,9.17v-11.16Z"/>
              <path class="cls-4" d="M46.14,58.68c.11.55.23,1.1.36,1.66l17.01,17.01.27-1.03-17.63-17.63Z"/>
            </g>
          </g>
        </g>
        <g>
          <g>
            <path class="cls-1" d="M130.92,112.16s-65.46.78-65.46,65.46c64.68,0,65.46-65.46,65.46-65.46Z"/>
            <path class="cls-2" d="M130.92,112.16s-60.79.74-65.2,58.68l60.83-35.79c4.24-12.5,4.37-22.89,4.37-22.89Z"/>
          </g>
          <g>
            <path class="cls-3" d="M126.85,134.16c.1-.31.2-.62.29-.92h-16.65s20.4-20.4,20.4-20.4c.02-.44.02-.67.02-.67,0,0-.24,0-.67.02l-20.4,20.4v-16.65c-.31.1-.61.19-.92.29v17.28s-7.89,7.89-7.89,7.89v-22.12c-.31.14-.61.28-.92.43v22.61s-15.53,15.54-15.53,15.54v-27.98c-.31.28-.62.56-.92.85v28.05s-7.89,7.89-7.89,7.89v-26.67c-.31.47-.62.94-.92,1.43v26.17s-9.38,9.38-9.38,9.38c0,.22-.01.44-.01.66.22,0,.44,0,.66-.01l9.38-9.38h26.17c.48-.3.96-.61,1.43-.92h-26.67l7.89-7.89h28.05c.29-.31.57-.61.85-.92h-27.98l15.53-15.53h22.61c.14-.31.29-.61.43-.92h-22.12s7.89-7.89,7.89-7.89h17.28Z"/>
            <g>
              <path class="cls-4" d="M109.58,134.16h17.28c.1-.31.2-.62.29-.92h-16.65s20.4-20.4,20.4-20.4c.02-.44.02-.67.02-.67,0,0-.24,0-.67.02l-20.4,20.4v-16.65c-.31.1-.61.19-.92.29v17.28s-7.89,7.89-7.89,7.89v-22.12c-.31.14-.61.28-.92.43v22.61s-15.53,15.54-15.53,15.54v-27.98c-.31.28-.62.56-.92.85v28.05s-3.68,3.68-3.68,3.68l3.17-1.86,1.17-1.17h.82l1.57-.92h-1.46l15.53-15.53h12.33s1.57-.92,1.57-.92h-12.97s7.89-7.89,7.89-7.89Z"/>
              <path class="cls-4" d="M75.77,139.99c-.31.47-.62.94-.92,1.43v24.06s.92-.54.92-.54v-24.94Z"/>
            </g>
          </g>
        </g>
        <g>
          <g>
            <path class="cls-1" d="M0,77.58s.78,65.46,65.46,65.46C65.46,78.37,0,77.58,0,77.58Z"/>
            <path class="cls-2" d="M0,77.58s.74,60.79,58.68,65.2l-35.79-60.83c-12.5-4.24-22.89-4.37-22.89-4.37Z"/>
          </g>
          <g>
            <path class="cls-3" d="M22,81.65c-.31-.1-.62-.2-.92-.29v16.65S.67,77.6.67,77.6c-.44-.02-.67-.02-.67-.02,0,0,0,.24.02.67l20.4,20.4H3.77c.1.31.19.61.29.92h17.28s7.89,7.89,7.89,7.89H7.12c.14.31.28.61.43.92h22.61s15.54,15.53,15.54,15.53h-27.98c.28.31.56.62.85.92h28.05s7.89,7.89,7.89,7.89h-26.67c.47.31.94.62,1.43.92h26.17s9.38,9.38,9.38,9.38c.22,0,.44.01.66.01,0-.22,0-.44-.01-.66l-9.38-9.38v-26.17c-.3-.48-.61-.96-.92-1.43v26.67l-7.89-7.89v-28.05c-.31-.29-.61-.57-.92-.85v27.98l-15.53-15.53v-22.61c-.31-.14-.61-.29-.92-.43v22.12s-7.89-7.89-7.89-7.89v-17.28Z"/>
            <g>
              <path class="cls-4" d="M22,98.93v-17.28c-.31-.1-.62-.2-.92-.29v16.65S.67,77.6.67,77.6c-.44-.02-.67-.02-.67-.02,0,0,0,.24.02.67l20.4,20.4H3.77c.1.31.19.61.29.92h17.28s7.89,7.89,7.89,7.89H7.12c.14.31.28.61.43.92h22.61s15.54,15.53,15.54,15.53h-27.98c.28.31.56.62.85.92h28.05s3.68,3.68,3.68,3.68l-1.86-3.17-1.17-1.17v-.82l-.92-1.57v1.46l-15.53-15.53v-12.33s-.92-1.57-.92-1.57v12.97s-7.89-7.89-7.89-7.89Z"/>
              <path class="cls-4" d="M27.83,132.73c.47.31.94.62,1.43.92h24.06s-.54-.92-.54-.92h-24.94Z"/>
            </g>
          </g>
        </g>
        <g>
          <g>
            <path class="cls-1" d="M115.92,69.98s-50.46.6-50.46,50.46c49.85,0,50.46-50.46,50.46-50.46Z"/>
            <path class="cls-2" d="M115.92,69.98s-46.86.57-50.26,45.23l46.89-27.59c3.27-9.63,3.37-17.64,3.37-17.64Z"/>
          </g>
          <g>
            <path class="cls-3" d="M112.78,86.94c.08-.24.15-.47.23-.71h-12.83s15.73-15.73,15.73-15.73c.01-.34.02-.52.02-.52,0,0-.18,0-.52.02l-15.73,15.73v-12.83c-.24.07-.47.15-.71.23v13.32s-6.08,6.08-6.08,6.08v-17.05c-.24.11-.47.22-.71.33v17.43s-11.97,11.97-11.97,11.97v-21.57c-.24.21-.48.43-.71.66v21.62s-6.08,6.08-6.08,6.08v-20.56c-.24.36-.48.73-.71,1.1v20.17s-7.23,7.23-7.23,7.23c0,.17,0,.34,0,.51.17,0,.34,0,.51,0l7.23-7.23h20.17c.37-.23.74-.47,1.1-.71h-20.56l6.08-6.08h21.62c.22-.24.44-.47.66-.71h-21.57l11.97-11.97h17.43c.11-.24.22-.47.33-.71h-17.05s6.08-6.08,6.08-6.08h13.32Z"/>
            <g>
              <path class="cls-4" d="M99.47,86.94h13.32c.08-.24.15-.47.23-.71h-12.83s15.73-15.73,15.73-15.73c.01-.34.02-.52.02-.52,0,0-.18,0-.52.02l-15.73,15.73v-12.83c-.24.07-.47.15-.71.23v13.32s-6.08,6.08-6.08,6.08v-17.05c-.24.11-.47.22-.71.33v17.43s-11.97,11.97-11.97,11.97v-21.57c-.24.21-.48.43-.71.66v21.62s-2.84,2.84-2.84,2.84l2.44-1.44.9-.9h.63l1.21-.71h-1.13l11.97-11.97h9.5l1.21-.71h-10s6.08-6.08,6.08-6.08Z"/>
              <path class="cls-4" d="M73.41,91.43c-.24.36-.48.73-.71,1.1v18.54s.71-.42.71-.42v-19.22Z"/>
            </g>
          </g>
        </g>
        <g>
          <g>
            <path class="cls-1" d="M15,149.2s.6,50.46,50.46,50.46c0-49.85-50.46-50.46-50.46-50.46Z"/>
            <path class="cls-2" d="M15,149.2s.57,46.86,45.23,50.26l-27.59-46.89c-9.63-3.27-17.64-3.37-17.64-3.37Z"/>
          </g>
          <g>
            <path class="cls-3" d="M31.96,152.34c-.24-.08-.47-.15-.71-.23v12.83s-15.73-15.73-15.73-15.73c-.34-.01-.52-.02-.52-.02,0,0,0,.18.02.52l15.73,15.73h-12.83c.07.24.15.47.23.71h13.32s6.08,6.08,6.08,6.08h-17.05c.11.24.22.47.33.71h17.43s11.97,11.97,11.97,11.97h-21.57c.21.24.43.48.66.71h21.62s6.08,6.08,6.08,6.08h-20.56c.36.24.73.48,1.1.71h20.17s7.23,7.23,7.23,7.23c.17,0,.34,0,.51,0,0-.17,0-.34,0-.51l-7.23-7.23v-20.17c-.23-.37-.47-.74-.71-1.1v20.56l-6.08-6.08v-21.62c-.24-.22-.47-.44-.71-.66v21.57l-11.97-11.97v-17.43c-.24-.11-.47-.22-.71-.33v17.05s-6.08-6.08-6.08-6.08v-13.32Z"/>
            <g>
              <path class="cls-4" d="M31.96,165.65v-13.32c-.24-.08-.47-.15-.71-.23v12.83s-15.73-15.73-15.73-15.73c-.34-.01-.52-.02-.52-.02,0,0,0,.18.02.52l15.73,15.73h-12.83c.07.24.15.47.23.71h13.32s6.08,6.08,6.08,6.08h-17.05c.11.24.22.47.33.71h17.43s11.97,11.97,11.97,11.97h-21.57c.21.24.43.48.66.71h21.62s2.84,2.84,2.84,2.84l-1.44-2.44-.9-.9v-.63l-.71-1.21v1.13l-11.97-11.97v-9.5l-.71-1.21v10s-6.08-6.08-6.08-6.08Z"/>
              <path class="cls-4" d="M36.45,191.71c.36.24.73.48,1.1.71h18.54s-.42-.71-.42-.71h-19.22Z"/>
            </g>
          </g>
        </g>
      </g>
      <path class="cls-3" d="M65.46,252.88c-.28,0-.5-.22-.5-.5V86.21c0-.28.22-.5.5-.5s.5.22.5.5v166.17c0,.28-.22.5-.5.5Z"/>
    </g>
  </g>
</svg>