<?xml version="1.0" encoding="UTF-8"?>
<svg id="Layer_2" xmlns="http://www.w3.org/2000/svg" viewBox="0 0 105.8 218.74">
  <defs>
    <style>
      .cls-1 {
        fill: #235638;
      }

      .cls-2 {
        fill: #91b735;
      }

      .cls-3 {
        fill: #9dc947;
      }

      .cls-4 {
        fill: #2f724c;
      }
    </style>
  </defs>
  <g id="OBJECTS">
    <g>
      <g>
        <path class="cls-3" d="M105.3,103.37c-20.79-22.92-10.75-45.64-6.3-53.29.71-1.22-.11-2.72-1.52-2.82-27.74-2.11-38.88-31.12-42.76-45.86-.5-1.88-3.14-1.88-3.64,0-3.89,14.73-15.03,43.74-42.76,45.86-1.4.11-2.22,1.61-1.52,2.82,4.44,7.64,14.49,30.37-6.3,53.29-.67.74-.67,1.86.03,2.57,5.32,5.38,24.55,27.72,5.81,53.15-.65.89-.41,2.15.54,2.72,8.06,4.84,40.45,25.94,45.38,55.59,0,0,0,0,0,0,.12.78.76,2.58,1.26,0h0c4.92-29.64,37.32-50.75,45.38-55.59.95-.57,1.19-1.83.54-2.72-18.74-25.44.49-47.77,5.81-53.15.7-.71.7-1.83.03-2.57Z"/>
        <path class="cls-2" d="M54.72,1.41c-.49-1.88-3.14-1.88-3.64,0-3.89,14.73-15.03,43.74-42.76,45.86-1.4.11-2.22,1.61-1.52,2.82,4.44,7.64,14.49,30.37-6.3,53.29-.67.74-.67,1.86.03,2.57,5.32,5.38,24.55,27.72,5.81,53.15-.65.89-.41,2.15.54,2.72,4.89,2.93,18.7,11.85,29.93,25.01L75.36,38.06C63.27,27.77,57.34,11.35,54.72,1.41Z"/>
      </g>
      <g>
        <path class="cls-4" d="M53.37,114.61l52.42-9.84c.02-.31-.04-.63-.18-.92l-52.24,9.81v-44.07l45.77-21.06c-.11-.3-.29-.57-.54-.79l-45.23,20.81V.07c-.31-.08-.63-.08-.94,0v68.48L7.2,47.74c-.25.21-.43.48-.54.79l45.77,21.06v44.07L.19,103.85c-.14.29-.2.61-.18.92l52.42,9.84v23l-46.44,22.48c-.02.33.05.66.19.95l46.25-22.39v79.38c.22.64.59,1.17.94.02v-79.41l46.25,22.39c.15-.3.21-.62.19-.95l-46.44-22.48v-23Z"/>
        <g>
          <path class="cls-1" d="M53.37,113.66v-44.07l15.69-7.22.3-1.17-16,7.36V.07c-.31-.08-.63-.08-.94,0v68.48L7.2,47.74c-.25.21-.43.48-.54.79l45.77,21.06v44.07L.19,103.85c-.14.29-.2.61-.18.92l52.42,9.84v11.94l.94-3.63v-8.32l2.26-.43.26-1-2.53.47Z"/>
          <path class="cls-1" d="M49.15,139.2l-43.17,20.9c-.02.33.05.66.19.95l42.67-20.65.31-1.19Z"/>
        </g>
      </g>
    </g>
  </g>
</svg>