<?xml version="1.0" encoding="UTF-8"?>
<svg id="Layer_2" xmlns="http://www.w3.org/2000/svg" viewBox="0 0 138.82 188.69">
  <defs>
    <style>
      .cls-1 {
        fill: #9dc947;
      }

      .cls-2 {
        fill: #2a6341;
      }

      .cls-3 {
        fill: #87a52b;
      }

      .cls-4 {
        fill: #2f724c;
      }
    </style>
  </defs>
  <g id="OBJECTS">
    <g>
      <g>
        <g>
          <g>
            <path class="cls-4" d="M69.41,0c-62.59,49.76,0,121.76,0,121.76,0,0,62.59-72,0-121.76Z"/>
            <path class="cls-2" d="M63.17,113.54l24.32-93.85c-4.29-6.79-10.19-13.42-18.08-19.69-49.8,39.59-20.36,93.26-6.24,113.54Z"/>
          </g>
          <g>
            <path class="cls-1" d="M69.77,100.77v-38.5l25.3-25.3c-.07-.27-.14-.54-.22-.81l-25.08,25.08V20.23l10.28-10.28c-.16-.18-.32-.36-.49-.54l-9.8,9.8V.29c-.12-.1-.24-.2-.36-.29-.12.1-.24.2-.36.29v33.04l-16.09-16.09c-.14.2-.28.41-.42.61l16.51,16.51v44.91l-27.43-27.43c0,.34-.02.67-.02,1.01l27.45,27.45v41.04c.24.28.36.43.36.43,0,0,.13-.15.36-.43v-19.54l23.5-23.5c.15-.49.3-.98.44-1.47l-23.94,23.94Z"/>
            <path class="cls-3" d="M69.77,61.24V20.23l10.28-10.28s-.02-.02-.03-.03c-.12-.14-.25-.27-.37-.41-.03-.03-.06-.06-.09-.09l-9.8,9.8V.29s-.09-.08-.14-.11c-.07-.06-.15-.12-.22-.18-.12.1-.24.2-.36.3v33.03l-16.09-16.09s-.01.02-.02.02c-.08.12-.17.24-.25.37-.05.07-.1.15-.15.22l16.5,16.5v44.91l-27.43-27.43s0,.02,0,.03c0,.14,0,.28,0,.42,0,.19,0,.38,0,.57l27.44,27.44v10.56l.73-2.8v-25.79l9.02-9.02.36-1.39-9.38,9.38Z"/>
          </g>
        </g>
        <g>
          <g>
            <path class="cls-4" d="M138.69,86.82c-60.18-10.28-69.28,61.99-69.28,61.99,0,0,72.83-1.04,69.28-61.99Z"/>
            <path class="cls-2" d="M97.56,143.67l14.41-55.63c-36.32,11.2-42.56,60.76-42.56,60.76,0,0,13.24-.19,28.15-5.13Z"/>
          </g>
          <g>
            <path class="cls-1" d="M81.54,138.32l21.91-19.6,27.28,1.52c.12-.18.23-.36.35-.54l-27.04-1.5,23.34-20.88,11.09.62c.02-.18.04-.37.06-.55l-10.56-.59,10.76-9.62c0-.12-.01-.24-.02-.36-.12-.02-.23-.04-.35-.06l-18.8,16.82.96-17.35c-.19.02-.37.05-.56.07l-.99,17.8-25.55,22.86,1.64-29.57c-.2.17-.39.33-.58.5l-1.64,29.59-23.35,20.89c-.04.28-.06.42-.06.42,0,0,.15,0,.43-.01l11.12-9.95,25.34,1.41c.35-.16.71-.33,1.06-.5l-25.81-1.43Z"/>
            <path class="cls-3" d="M69.46,148.8s.05,0,.07,0c.02,0,.04,0,.05,0,.04,0,.08,0,.13,0,.01,0,.03,0,.04,0,.02,0,.05,0,.07,0l11.12-9.95,17.6.98.14-.55-17.16-.95,21.91-19.6.57.03.14-.55h-.12s.16-.15.16-.15l.25-.97-11.04,9.88,1.64-29.56c-.14.12-.28.23-.41.35-.04.03-.07.06-.11.09-.02.02-.04.04-.06.06l-1.64,29.59-23.35,20.89s0,.03,0,.04c0,.05-.01.09-.02.13,0,.02,0,.03,0,.04,0,.04,0,.07-.01.1,0,.02,0,.03,0,.05,0,.01,0,.03,0,.04,0,.02,0,.03,0,.03,0,0,.01,0,.03,0,0,0,.01,0,.02,0Z"/>
          </g>
        </g>
        <g>
          <g>
            <path class="cls-4" d="M.13,86.82c60.18-10.28,69.28,61.99,69.28,61.99,0,0-72.83-1.04-69.28-61.99Z"/>
            <path class="cls-2" d="M.13,86.82c-1.58,27.2,12.05,42.47,27.64,51.04l11.39-43.94c-9.71-6.48-22.42-9.93-39.02-7.1Z"/>
          </g>
          <g>
            <path class="cls-1" d="M57.28,138.32l-21.91-19.6-27.28,1.52c-.12-.18-.23-.36-.35-.54l27.04-1.5-23.34-20.88-11.09.62c-.02-.18-.04-.37-.06-.55l10.56-.59L.11,87.17c0-.12.01-.24.02-.36.12-.02.23-.04.35-.06l18.8,16.82-.96-17.35c.19.02.37.05.56.07l.99,17.8,25.55,22.86-1.64-29.57c.2.17.39.33.58.5l1.64,29.59,23.35,20.89c.04.28.06.42.06.42,0,0-.15,0-.43-.01l-11.12-9.95-25.34,1.41c-.35-.16-.71-.33-1.06-.5l25.81-1.43Z"/>
            <g>
              <path class="cls-3" d="M8.1,120.23l24.58-1.37.15-.56-25.08,1.39c.11.18.23.36.35.54Z"/>
              <path class="cls-3" d="M10.86,96.8l-10.55.59c.02.18.04.37.06.55l11.08-.62,21.77,19.48.16-.6-13.51-12.09-.99-17.78c-.19-.03-.37-.05-.56-.07l.96,17.33L.48,86.76c-.12.02-.24.03-.36.05,0,.12,0,.24-.01.36l10.75,9.62Z"/>
            </g>
          </g>
        </g>
      </g>
      <path class="cls-1" d="M69.41,188.69c-.2,0-.36-.16-.36-.36v-77.45c0-.2.16-.36.36-.36s.36.16.36.36v77.45c0,.2-.16.36-.36.36Z"/>
    </g>
  </g>
</svg>