<?xml version="1.0" encoding="UTF-8"?>
<svg id="Layer_2" xmlns="http://www.w3.org/2000/svg" viewBox="0 0 119.11 167.39">
  <defs>
    <style>
      .cls-1 {
        fill: #5d8139;
      }

      .cls-2 {
        fill: #52702f;
      }

      .cls-3 {
        fill: #9dc947;
      }

      .cls-4 {
        fill: #87a52b;
      }
    </style>
  </defs>
  <g id="OBJECTS">
    <g>
      <g>
        <path class="cls-1" d="M114.51,46.07c-2.98,6.58-11.69,11.47-21.76,17.33C85.24,35.06,59.56,15.74,59.56,0c0,15.74-25.68,35.06-33.19,63.41-10.08-5.86-18.78-10.76-21.76-17.33,10.43,23.04-40.99,85.19,54.95,121.32,95.94-36.12,44.52-98.28,54.95-121.32Z"/>
        <path class="cls-2" d="M83.05,41.47C72.8,24.45,59.56,11.3,59.56,0c0,15.74-25.68,35.06-33.19,63.41-10.08-5.86-18.78-10.76-21.76-17.34,10.12,22.34-37.94,81.48,46.67,117.98l31.77-122.59Z"/>
      </g>
      <g>
        <path class="cls-3" d="M113.3,50.33c.23-1.53.62-2.96,1.2-4.26-.43.95-.99,1.85-1.64,2.74l-52.8,118.23V3.95c-.32-1.34-.51-2.66-.51-3.95,0,1.29-.19,2.61-.51,3.95v163.09L6.25,48.81c-.65-.88-1.21-1.79-1.64-2.74.59,1.3.97,2.72,1.2,4.26l51.97,116.37c.6.23,1.17.46,1.78.69.61-.23,1.18-.46,1.78-.69l51.97-116.37Z"/>
        <g>
          <path class="cls-4" d="M59.44,1.79c-.02.19-.05.38-.08.57-.08.53-.18,1.06-.31,1.59v130.13l1.02-3.93V3.99c-.25-1.02-.41-2.02-.47-3-.02-.33-.04-.66-.04-.98,0,.41-.03.83-.06,1.24-.01.18-.03.36-.05.54Z"/>
          <path class="cls-4" d="M5.32,48.04s.02.05.02.08c.2.71.35,1.45.47,2.22l47.42,106.18.41-1.58L6.25,48.81c-.31-.42-.6-.85-.86-1.28-.02-.03-.04-.06-.05-.08-.27-.45-.51-.91-.73-1.37.15.33.29.67.41,1.02.11.31.21.63.3.95Z"/>
        </g>
      </g>
    </g>
  </g>
</svg>