<?xml version="1.0" encoding="UTF-8"?>
<svg id="Layer_2" xmlns="http://www.w3.org/2000/svg" viewBox="0 0 120.18 214.29">
  <defs>
    <style>
      .cls-1 {
        fill: #9dc947;
      }

      .cls-2 {
        fill: #2a6341;
      }

      .cls-3 {
        fill: #87a52b;
      }

      .cls-4 {
        fill: #2f724c;
      }
    </style>
  </defs>
  <g id="OBJECTS">
    <g>
      <g>
        <path class="cls-4" d="M116.74,130.02c-3.05-2.1-7.77-1.31-13.3,1.74,11.33-21.73,14.51-41.74,6.86-46.19-4.01-2.33-10.27.05-17.24,5.81.2-.53.4-1.05.6-1.58,9.5-25.91,9.87-49.59.83-52.91-4.62-1.69-10.79,2.26-17,9.97C76.93,20.71,69.36,0,60.09,0s-16.84,20.71-17.4,46.86c-6.2-7.71-12.38-11.67-17-9.97-9.04,3.32-8.67,27,.83,52.91.2.53.4,1.06.6,1.58-6.96-5.76-13.22-8.14-17.24-5.81-7.65,4.45-4.47,24.46,6.86,46.19-5.53-3.05-10.24-3.84-13.3-1.74-7.93,5.46-1.68,28.31,13.96,51.04,11.55,16.79,25,28.8,34.43,31.74h0c4.4,1.42,8.04,2.37,15.76.22.19-.05.38-.1.57-.16.07-.02.14-.04.21-.06h0c9.44-2.95,22.88-14.96,34.43-31.75,15.64-22.73,21.89-45.58,13.96-51.04Z"/>
        <path class="cls-2" d="M77.49,46.86C76.93,20.71,69.36,0,60.09,0s-16.84,20.71-17.4,46.86c-6.2-7.71-12.38-11.67-17-9.97-9.04,3.32-8.67,27,.83,52.91.2.53.4,1.06.6,1.58-6.96-5.76-13.22-8.14-17.24-5.81-7.65,4.45-4.47,24.46,6.86,46.19-5.53-3.05-10.24-3.84-13.3-1.74-7.93,5.46-1.68,28.31,13.96,51.04,7.02,10.2,14.73,18.63,21.82,24.34L81.44,42.47c-1.3,1.28-2.62,2.74-3.95,4.39Z"/>
      </g>
      <g>
        <path class="cls-1" d="M118.59,131.98l-58.06,68.44v-50.75l52.33-61.37c-.15-.28-.32-.54-.49-.79l-51.84,60.8v-43.74l37.98-63.9c-.17-.3-.34-.59-.52-.86l-37.46,63.03V.03c-.15-.01-.29-.03-.44-.03s-.3.02-.44.03v102.8L22.19,39.8c-.18.27-.35.56-.52.86l37.98,63.9v43.74L7.81,87.51c-.18.25-.34.51-.49.79l52.33,61.37v50.75L1.59,131.98c-.16.26-.31.54-.45.83l58.51,68.97v12.49c.29,0,.58,0,.89-.02v-12.47l58.51-68.97c-.14-.29-.29-.57-.45-.83Z"/>
        <g>
          <path class="cls-3" d="M59.65,102.83L22.19,39.8s0,0,0,0c-.18.27-.35.56-.52.86l37.98,63.9v22l.89-3.42v-18.59l8.54-14.37.8-3.07-9.34,15.71V.03c-.15-.01-.29-.03-.44-.03s-.3.02-.44.03v102.8Z"/>
          <path class="cls-3" d="M55.33,143.24L7.81,87.51c-.18.25-.34.51-.49.79l47.74,55.99.27-1.05Z"/>
          <path class="cls-3" d="M44.72,184.19l.27-1.05L1.59,131.98h0c-.16.26-.31.54-.45.83,0,0,0,0,0,0l43.58,51.37Z"/>
        </g>
      </g>
    </g>
  </g>
</svg>