<?xml version="1.0" encoding="UTF-8"?>
<svg id="Layer_2" xmlns="http://www.w3.org/2000/svg" viewBox="0 0 165.33 216.29">
  <defs>
    <style>
      .cls-1 {
        fill: #5d8139;
      }

      .cls-2 {
        fill: #52702f;
      }

      .cls-3 {
        fill: #9dc947;
      }

      .cls-4 {
        fill: #87a52b;
      }
    </style>
  </defs>
  <g id="OBJECTS">
    <g>
      <g>
        <g>
          <g>
            <path class="cls-1" d="M82.66,0c-56.71,56.71,0,123.22,0,142.06,0-18.84,56.71-85.36,0-142.06Z"/>
            <path class="cls-2" d="M76.03,122.84l25.08-96.8c-3.98-8.77-9.92-17.52-18.45-26.04-43.99,43.99-19.73,93.88-6.64,122.84Z"/>
          </g>
          <g>
            <path class="cls-3" d="M107.36,48.75l-24.25,24.25V.47c-.15-.15-.29-.31-.45-.47-.15.15-.3.31-.45.47v35.01l-15.13-15.13c-.15.27-.31.54-.46.82l15.58,15.58v68.38l-21.14-21.14c.15.58.31,1.16.46,1.74l20.68,20.68v32.31c.29,1.24.45,2.36.45,3.35,0-.99.16-2.11.45-3.35v-64.45l24.36-24.36c-.04-.39-.07-.77-.11-1.16Z"/>
            <g>
              <path class="cls-4" d="M80.94,103.86l-19.87-19.87c.15.58.31,1.16.46,1.74l19.14,19.14.26-1.01Z"/>
              <path class="cls-4" d="M82.21,35.48l-15.13-15.13c-.15.27-.31.54-.46.82l15.58,15.58v62.21l.9-3.47v-21.22l7.42-7.42.44-1.72-7.87,7.87V.47c-.15-.15-.29-.31-.45-.47-.15.15-.3.31-.45.47v35.01Z"/>
            </g>
          </g>
        </g>
        <g>
          <g>
            <path class="cls-1" d="M165.33,71c-65.99,0-71.7,71.7-82.66,82.66,10.96-10.96,82.66-16.67,82.66-82.66Z"/>
            <path class="cls-2" d="M89.99,138.62l70.92-41.73c2.79-7.42,4.42-15.97,4.42-25.88-51.2,0-66.11,43.15-75.34,67.62Z"/>
          </g>
          <g>
            <path class="cls-3" d="M151.33,113.74h-28.22l42.2-42.2c0-.18,0-.35,0-.53-.18,0-.35,0-.53,0l-20.37,20.37v-17.61c-.25.07-.5.14-.74.21v18.14s-39.79,39.79-39.79,39.79v-24.6c-.25.43-.5.85-.74,1.28v24.06s-18.8,18.8-18.8,18.8c-.55.89-1.11,1.64-1.69,2.21.57-.57,1.32-1.13,2.21-1.69l37.5-37.5h28.35c.2-.25.41-.49.61-.74Z"/>
            <g>
              <path class="cls-4" d="M103.89,130.44v-23.12c-.25.43-.5.85-.74,1.28v22.28s.74-.44.74-.44Z"/>
              <path class="cls-4" d="M144.42,91.39v-17.61c-.25.07-.5.14-.74.21v18.14s-36.2,36.2-36.2,36.2l2.54-1.5,12.35-12.35h8.64l1.26-.74h-9.16l42.2-42.2c0-.18,0-.35,0-.53-.18,0-.35,0-.53,0l-20.37,20.37Z"/>
            </g>
          </g>
        </g>
        <g>
          <g>
            <path class="cls-1" d="M154.23,181.9c-17.3-39.84-62.08-24.49-71.57-28.23,9.49,3.74,31.73,45.53,71.57,28.23Z"/>
            <path class="cls-2" d="M93.67,154.14l43.78,31.87c5.21-.26,10.8-1.52,16.78-4.12-13.42-30.9-43.37-28.6-60.56-27.76Z"/>
          </g>
          <g>
            <path class="cls-3" d="M124.76,184.65l-7.4-17.03,36.54,14.41c.11-.05.21-.09.32-.13-.05-.11-.1-.21-.15-.32l-17.64-6.96,10.63-4.61c-.11-.13-.21-.26-.32-.39l-10.95,4.75-34.45-13.59,14.85-6.45c-.32-.04-.64-.08-.97-.11l-14.52,6.31-16.28-6.42c-.68-.1-1.28-.24-1.78-.44.5.2,1.03.5,1.6.89l32.47,12.81,7.43,17.11c.2.06.4.12.61.17Z"/>
            <g>
              <path class="cls-4" d="M102.25,160.39l13.96-6.06c-.32-.04-.65-.08-.97-.11l-13.45,5.84.46.33Z"/>
              <path class="cls-4" d="M136.45,174.62l10.63-4.61c-.11-.13-.21-.26-.32-.39l-10.95,4.75-31.34-12.36,1.57,1.14,10.69,4.22,2.26,5.21.78.57-2.4-5.53,36.54,14.41c.11-.05.22-.09.32-.13-.05-.11-.1-.21-.15-.32l-17.64-6.96Z"/>
            </g>
          </g>
        </g>
        <g>
          <g>
            <path class="cls-1" d="M0,71c0,65.99,71.7,71.7,82.66,82.66C71.7,142.71,65.99,71,0,71Z"/>
            <path class="cls-2" d="M67.62,146.35L25.88,75.42c-7.42-2.79-15.97-4.42-25.88-4.42,0,51.2,43.15,66.11,67.62,75.34Z"/>
          </g>
          <g>
            <path class="cls-3" d="M42.74,85v28.22L.53,71.01c-.18,0-.35,0-.53,0,0,.18,0,.35,0,.53l20.37,20.37H2.78c.07.25.14.5.21.74h18.14s39.79,39.79,39.79,39.79h-24.6c.43.25.85.5,1.28.74h24.06s18.8,18.8,18.8,18.8c.89.55,1.64,1.11,2.21,1.69-.57-.57-1.13-1.32-1.69-2.21l-37.5-37.5v-28.35c-.25-.2-.49-.41-.74-.61Z"/>
            <g>
              <path class="cls-4" d="M59.43,132.44h-23.12c.43.25.85.5,1.28.74h22.28s-.44-.74-.44-.74Z"/>
              <path class="cls-4" d="M20.38,91.91H2.78c.07.25.14.5.21.74h18.14s36.2,36.2,36.2,36.2l-1.5-2.54-12.35-12.35v-8.64l-.74-1.26v9.16L.53,71.01c-.18,0-.35,0-.53,0,0,.18,0,.35,0,.53l20.37,20.37Z"/>
            </g>
          </g>
        </g>
        <g>
          <g>
            <path class="cls-1" d="M11.1,181.9c39.83,17.3,62.08-24.49,71.57-28.23-9.49,3.74-54.27-11.6-71.57,28.23Z"/>
            <path class="cls-2" d="M74.3,160.83l-53.75,6.6c-3.63,3.75-6.85,8.48-9.45,14.47,30.9,13.42,51.22-8.72,63.2-21.07Z"/>
          </g>
          <g>
            <path class="cls-3" d="M30.75,159.77l17.03,7.4-36.54,14.41c-.05.11-.1.21-.14.32.11.05.22.09.32.13l17.64-6.96-4.61,10.63c.17.02.34.05.5.07l4.75-10.95,34.45-13.59-6.45,14.85c.26-.19.52-.38.78-.58l6.31-14.52,16.28-6.42c.57-.39,1.1-.7,1.6-.89-.5.2-1.1.34-1.78.44l-32.47,12.81-17.11-7.43c-.19.1-.38.19-.56.29Z"/>
            <g>
              <path class="cls-4" d="M63.76,162.13l-6.06,13.96c.26-.19.52-.38.78-.58l5.84-13.45-.56.07Z"/>
              <path class="cls-4" d="M29.06,175.07l-4.61,10.63c.17.02.34.05.5.07l4.75-10.95,31.34-12.36-1.93.24-10.69,4.22-5.21-2.26-.95.12,5.53,2.4-36.54,14.41c-.05.11-.1.21-.14.32.11.05.22.09.32.13l17.64-6.96Z"/>
            </g>
          </g>
        </g>
      </g>
      <path class="cls-3" d="M82.66,216.29c-.25,0-.45-.2-.45-.45v-98.29c0-.25.2-.45.45-.45s.45.2.45.45v98.29c0,.25-.2.45-.45.45Z"/>
    </g>
  </g>
</svg>