<?xml version="1.0" encoding="UTF-8"?>
<svg xmlns="http://www.w3.org/2000/svg" viewBox="0 0 86.11 96.06">
  <defs>
    <style>
      .cls-1 {
        fill: #79a12e;
      }

      .cls-2, .cls-3, .cls-4, .cls-5 {
        fill: #9ccb3b;
      }

      .cls-2, .cls-6, .cls-5 {
        mix-blend-mode: multiply;
      }

      .cls-6, .cls-7 {
        fill: #916d5d;
      }

      .cls-8 {
        isolation: isolate;
      }

      .cls-4 {
        mix-blend-mode: screen;
      }

      .cls-5 {
        opacity: .44;
      }

      .cls-9 {
        fill: #5f8331;
      }

      .cls-10 {
        fill: #87b133;
      }
    </style>
  </defs>
  <g class="cls-8">
    <g id="Layer_2">
      <g id="Layer_1-2" data-name="Layer_1">
        <g>
          <path class="cls-9" d="M41.4,27.29c-.02-.35-.03-.71-.02-1.06.01-.39.04-.78,0-1.17-.08-.8-.6-1.51-1.42-1.67-.87-.17-1.75.28-2.12,1.09-.41.91.03,1.94.2,2.85.1.53.1,1.08.05,1.61-.02.02-.03.03-.04.05-.29.43-.33.97-.26,1.49-.01.05-.03.11-.04.16-.02.09.03.12.09.12.01.07.03.14.04.21.12.52.37,1.13.86,1.4.64.37,1.36-.02,1.82-.5.57-.59.81-1.34.89-2.14.08-.81.01-1.62-.03-2.43Z"/>
          <g>
            <path class="cls-9" d="M80.61,16.49c-.53.19-1.1.35-1.66.42-.6.07-1.19.15-1.79.2-1.27.1-2.56.09-3.84,0-1.25-.09-2.49-.22-3.72-.39-1.29-.18-2.56-.41-3.85-.57-2.82-.34-5.71-.36-8.49.26-.12-.1-.33-.07-.46-.01-.64.26-1.31.44-1.95.67-.62.23-1.24.44-1.85.69-1.22.49-2.41,1.05-3.52,1.76-.17.11-.34.22-.5.34-1.87,1.16-3.58,2.54-5.07,4.16-1.58,1.72-2.89,3.7-3.83,5.85-.38.87-.75,1.76-1.05,2.66-.29.88-.58,1.95-.26,2.86.07.19.18.36.32.51.19.2.5.13.72-.03.07-.02.14-.05.21-.08.23-.11.42-.29.54-.52.23-.42.29-.94.34-1.41.06-.49.14-.93.29-1.41.42-1.37.97-2.7,1.62-3.98,1.2-2.36,2.84-4.44,4.74-6.27.5-.4,1.01-.78,1.54-1.14,1.04-.72,2-1.3,3.13-1.87.54-.27,1.09-.53,1.64-.77.27-.12.54-.23.82-.33.13-.05.26-.1.39-.15.03-.01.07-.02.11-.04.07-.03.15-.05.22-.08,2.72-.93,5.61-1.14,8.47-.93,2.58.19,5.11.73,7.69.93,1.3.1,2.6.14,3.89.07.64-.03,1.28-.1,1.91-.2.3-.05.6-.1.9-.16.3-.06.58-.18.87-.28.52-.18,1.04-.36,1.53-.6.11-.05.09-.23-.05-.18Z"/>
            <g>
              <g>
                <path class="cls-3" d="M44.29,24.68c.36-1.51,1.31-2.88,2.31-4.04,1.11-1.27,2.42-2.41,3.87-3.26,3.35-1.96,7.2-2.7,11.05-2.64,3.07.05,6.06.63,9.07,1.13,3.03.51,6.12.96,9.2.79.46-.03.93-.07,1.39-.13.98-.29,1.92-.7,2.83-1.16.73-.37,1.4-.82,2-1.39.25-.24-.04-.51-.31-.44-.49.13-.98.27-1.48.4.55-.43,1.07-.9,1.57-1.4.14-.15.09-.37-.11-.41-1.32-.27-2.67-.36-4.01-.37-1.02-.01-2.05-.01-3.08.06.32-.09.63-.19.93-.33.19-.09.49-.52.14-.63-1.65-.55-3.29-1.09-4.95-1.6-.82-.25-1.65-.52-2.48-.7-.82-.18-1.66-.28-2.5-.36-.47-.05-.95-.1-1.42-.15.13-.06.25-.12.37-.21.2-.14.25-.39.03-.53-1-.68-2.23-.9-3.41-.97-.81-.05-1.62,0-2.42.05.28-.17.53-.38.71-.67.09-.14.03-.29-.1-.37-.82-.52-1.85-.55-2.79-.44-1.06.13-2.09.44-3.1.79-.15.05-.29.1-.44.15.06-.16.07-.31,0-.47-.2-.39-.83-.36-1.19-.34-.61.04-1.21.17-1.8.32-.72.19-1.44.44-2.1.79-.3.16-.59.33-.86.53.05-.19.08-.38.06-.59-.01-.15-.18-.24-.32-.23-1.15.16-2.18.76-3.04,1.53-.49.44-.94.94-1.33,1.48.01-.13.02-.27.04-.4.02-.2-.12-.33-.32-.32-1.08.07-1.84,1.08-2.38,1.91-.61.96-1.03,2.02-1.32,3.12-.37,1.41-.53,2.91-.41,4.37.05.62.16,1.22.37,1.8.2.55.46,1.08.72,1.6.37.75.79,1.57.97,2.41-.03.11-.02.22.05.31.04.31.05.62.01.93,0,.03,0,.05,0,.07Z"/>
                <path class="cls-5" d="M82.54,14.36c-1.36-.1-2.68-.37-4.01-.67-2.05-.47-4.08-1.04-6.11-1.58-2.01-.54-4.03-1.07-6.09-1.44-1.96-.36-3.94-.57-5.93-.66-3.54-.16-7.2.16-10.41,1.79-1.5.76-2.91,1.79-4.09,2.99-1.14,1.16-2.21,2.65-2.24,4.35,0,.17-.25.26-.31.07-.33-.93-.53-1.9-.61-2.88-.15-1.75.06-3.59.63-5.29-.33.69-.59,1.41-.78,2.15-.37,1.41-.53,2.91-.41,4.37.05.62.16,1.22.37,1.8.2.55.46,1.08.72,1.6.37.75.79,1.57.97,2.41-.03.11-.02.22.05.31.04.31.05.62.01.93,0,.03,0,.05,0,.07.36-1.51,1.31-2.88,2.31-4.04,1.11-1.27,2.42-2.41,3.87-3.26,3.35-1.96,7.2-2.7,11.05-2.64,3.07.05,6.06.63,9.07,1.13,3.03.51,6.12.96,9.2.79.46-.03.93-.07,1.39-.13.98-.29,1.92-.7,2.83-1.16.56-.29,1.1-.62,1.58-1.02-1.02.1-2.05.09-3.07.01Z"/>
                <path class="cls-3" d="M56.4,5.77s0,0,0,0c0,0,0,0,0,0h0s0,0,0,.01c0,0,0,0,0,0Z"/>
                <path class="cls-3" d="M56.4,5.77s0,0,0,0h0Z"/>
              </g>
              <g>
                <path class="cls-3" d="M58.5,11.17s0,.02,0,0h0Z"/>
                <path class="cls-1" d="M79.25,14.73c-3.49-.16-6.9-1.13-10.37-1.32.25-.28,2.74-1.08,2.09-1.48-1.05-.65-4.34-.2-5.42.15-.36.12-.74.24-1.12.29.46-.35,1.13-1.69.85-1.69-1.33.03-2.65.24-3.93.58-.6.16-1.19.36-1.76.6-.24.1-.48.21-.72.3.22-.29.41-.6.49-.93.15-.58-.31-.83-.82-.84-.36,0-.73.07-1.09.15-.5.11-.99.26-1.47.42-1.02.35-3.71,2.23-4.09,2.66-.11.13-.23.26-.35.38.23-.66.56-1.31.4-2.04-.03-.16-.17-.26-.34-.24-2.71.29-5.83,5.79-5.99,6.12-.18-.4-.32-.83-.58-1.19-.11-.15-.29-.18-.46-.13-.11.29-.21.6-.29.9-.41,1.69-.32,3.47-.11,5.18.11.85.25,1.7.41,2.54.51-1.12,1.25-2.12,2.16-2.96,1.32-1.23,2.93-2.12,4.59-2.79.74-.3,1.49-.55,2.25-.77.75-.29,1.52-.54,2.29-.76,3.08-.87,6.34-1.26,9.54-1.21,3.45.05,6.85.68,10.29.92.17,0,.35,0,.52-.02,1.69-.08,3.38-.25,5.03-.66,1.44-.36,2.87-.9,4.05-1.82.3-.23.57-.48.82-.76-2.28.26-4.56.49-6.86.39Z"/>
              </g>
            </g>
          </g>
          <g>
            <path class="cls-9" d="M4.63,17.15c.45.19.93.36,1.41.44.51.09,1.02.19,1.53.26,1.09.15,2.2.21,3.3.19,1.08-.01,2.15-.07,3.22-.15,1.11-.09,2.22-.23,3.34-.3,2.44-.16,4.93-.03,7.29.64.11-.08.28-.04.4.01.54.26,1.11.44,1.64.67.52.22,1.04.44,1.56.68,1.03.48,2.02,1.02,2.94,1.68.14.1.28.21.42.32,1.55,1.09,2.96,2.36,4.16,3.83,1.27,1.56,2.31,3.33,3.01,5.22.28.77.56,1.55.77,2.34.2.77.41,1.71.09,2.47-.07.16-.18.3-.3.42-.17.16-.44.08-.62-.06-.06-.02-.12-.05-.17-.08-.2-.1-.34-.27-.44-.47-.18-.38-.2-.82-.23-1.23-.03-.42-.08-.81-.18-1.23-.29-1.2-.71-2.37-1.2-3.5-.92-2.09-2.23-3.96-3.77-5.63-.41-.37-.83-.72-1.27-1.06-.86-.67-1.66-1.21-2.61-1.77-.45-.26-.91-.51-1.37-.74-.23-.11-.45-.22-.69-.32-.11-.05-.22-.1-.33-.15-.03-.01-.06-.03-.09-.04-.06-.03-.12-.05-.19-.08-2.3-.93-4.77-1.25-7.24-1.21-2.23.04-4.43.38-6.66.43-1.12.02-2.24,0-3.35-.13-.55-.06-1.1-.15-1.64-.26-.26-.05-.51-.11-.77-.18-.25-.07-.49-.18-.73-.28-.44-.18-.87-.36-1.29-.59-.1-.05-.07-.2.05-.15Z"/>
            <g>
              <g>
                <path class="cls-3" d="M35.48,25.96c-.24-1.32-.98-2.54-1.79-3.59-.89-1.15-1.96-2.19-3.17-3-2.79-1.85-6.06-2.67-9.38-2.81-2.64-.11-5.24.25-7.86.53-2.63.29-5.31.53-7.96.23-.4-.04-.8-.11-1.19-.18-.83-.29-1.62-.7-2.37-1.14-.61-.36-1.17-.77-1.65-1.29-.2-.22.06-.44.29-.36.42.14.83.28,1.25.42-.46-.39-.88-.83-1.28-1.28-.12-.13-.06-.32.12-.35,1.15-.17,2.32-.18,3.47-.13.88.04,1.77.09,2.64.2-.27-.09-.53-.2-.79-.33-.16-.09-.4-.47-.09-.55,1.44-.39,2.89-.78,4.34-1.13.72-.17,1.44-.36,2.17-.48.72-.11,1.44-.16,2.17-.19.41-.02.82-.04,1.23-.06-.11-.06-.21-.12-.31-.2-.16-.13-.19-.34,0-.46.9-.54,1.96-.67,2.98-.67.7,0,1.39.07,2.08.16-.23-.16-.44-.35-.58-.61-.07-.13,0-.25.1-.31.73-.41,1.62-.38,2.42-.24.91.17,1.78.48,2.63.83.12.05.25.1.37.15-.04-.14-.04-.27.03-.4.19-.33.73-.27,1.04-.23.52.06,1.03.2,1.53.36.61.2,1.22.45,1.77.78.25.15.49.31.72.5-.04-.16-.05-.33-.02-.51.02-.13.16-.2.28-.18.98.19,1.84.76,2.54,1.46.4.41.76.86,1.07,1.34,0-.12,0-.23-.01-.35,0-.17.12-.28.29-.26.92.11,1.54,1.02,1.95,1.76.48.85.79,1.79.98,2.74.25,1.23.31,2.53.14,3.78-.07.53-.2,1.04-.41,1.53-.2.46-.45.9-.7,1.35-.36.63-.75,1.31-.95,2.03.02.1,0,.19-.06.26-.05.26-.07.53-.05.8,0,.02,0,.04,0,.06Z"/>
                <path class="cls-5" d="M3.08,15.22c1.17-.02,2.33-.18,3.48-.38,1.79-.3,3.56-.69,5.33-1.07,1.76-.37,3.52-.72,5.31-.95,1.7-.22,3.42-.3,5.14-.28,3.06.03,6.19.49,8.87,2.05,1.25.73,2.42,1.68,3.37,2.77.93,1.06,1.78,2.39,1.71,3.85,0,.15.2.24.27.08.33-.78.55-1.61.67-2.45.21-1.5.13-3.09-.28-4.58.25.61.44,1.24.57,1.89.25,1.23.31,2.53.14,3.78-.07.53-.2,1.04-.41,1.53-.2.46-.45.9-.7,1.35-.36.63-.75,1.31-.95,2.03.02.1,0,.19-.06.26-.05.26-.07.53-.05.8,0,.02,0,.04,0,.06-.24-1.32-.98-2.54-1.79-3.59-.89-1.15-1.96-2.19-3.17-3-2.79-1.85-6.06-2.67-9.38-2.81-2.64-.11-5.24.25-7.86.53-2.63.29-5.31.53-7.96.23-.4-.04-.8-.11-1.19-.18-.83-.29-1.62-.7-2.37-1.14-.47-.28-.91-.59-1.31-.96.87.14,1.76.18,2.64.16Z"/>
                <path class="cls-3" d="M25.98,9.1s0,0,0,0c0,0,0,0,0,0h0s0,0,0,0c0,0,0,0,0,0Z"/>
                <path class="cls-3" d="M25.98,9.11s0,0,0,0h0Z"/>
              </g>
              <g>
                <path class="cls-3" d="M23.92,13.65s0,.02,0,0h0Z"/>
                <path class="cls-1" d="M5.88,15.7c3.01.03,5.99-.64,8.99-.63-.2-.25-2.3-1.06-1.72-1.38.93-.51,3.75.04,4.66.4.31.12.63.24.95.31-.38-.33-.89-1.51-.65-1.49,1.14.09,2.27.34,3.35.69.51.17,1,.37,1.49.6.2.1.4.2.61.29-.17-.26-.32-.53-.38-.82-.1-.51.31-.7.75-.69.31.01.63.09.93.18.42.12.84.27,1.25.44.86.35,3.08,2.1,3.39,2.49.09.12.18.23.28.35-.17-.58-.42-1.15-.25-1.77.04-.13.16-.21.3-.19,2.31.38,4.73,5.27,4.86,5.56.17-.34.32-.7.55-.99.1-.12.26-.14.4-.09.08.26.15.52.2.79.27,1.47.11,3-.16,4.46-.13.73-.3,1.45-.47,2.17-.38-.99-.97-1.89-1.71-2.66-1.08-1.12-2.41-1.96-3.81-2.62-.62-.29-1.25-.55-1.9-.77-.63-.29-1.28-.54-1.94-.77-2.61-.9-5.4-1.39-8.15-1.5-2.97-.12-5.93.25-8.9.29-.15-.01-.3-.02-.45-.04-1.45-.15-2.9-.38-4.29-.81-1.22-.38-2.42-.92-3.39-1.76-.24-.21-.47-.44-.67-.69,1.95.33,3.9.65,5.88.67Z"/>
              </g>
            </g>
          </g>
          <g>
            <path class="cls-3" d="M24.43,56.4c-.39.5-.57,1.13-.64,1.76-.53,5.11,5.27,7.68,9.34,8.65,1.8.43,3.7.74,5.22,1.8.49.34,1.65,2.69,2.39,1.94.32-.33.11-1.33.1-1.74-.05-1.21-.23-2.4-.58-3.56-.65-2.19-1.83-4.22-3.43-5.84-2.29-2.32-8.88-6.43-12.03-3.43-.13.13-.26.26-.38.42Z"/>
            <path class="cls-4" d="M28.16,57.25c.57.21,1.12.51,1.58.9.28.24.86.78.63,1.2-.2.38-.82.37-1.18.33-.77-.1-1.56-.55-2.16-1.03-.3-.24-.62-.54-.73-.92-.08-.27-.01-.58.2-.76.56-.05,1.13.08,1.66.28Z"/>
            <path class="cls-2" d="M25.65,62.96c1.42.98,3.04,1.67,4.71,2.09.83.21,1.69.35,2.55.41.83.06,1.67.08,2.49-.06.74-.13,1.5-.37,2.08-.87.59-.5.89-1.22.93-1.99.02-.53-.08-1.06-.26-1.56.94,1.3,1.66,2.75,2.11,4.29.35,1.16.53,2.35.58,3.56.02.41.23,1.41-.1,1.74-.74.75-1.9-1.6-2.39-1.94-1.52-1.06-3.42-1.37-5.22-1.8-2.64-.63-6.02-1.93-7.92-4.17.14.11.29.21.44.32Z"/>
            <path class="cls-2" d="M39.38,68.13c-.86-2.7-2.68-5.02-4.69-6.95-1.77-1.7-3.77-3.17-5.91-4.37,1.31.27,2.53.97,3.61,1.74,1.15.82,2.19,1.78,3.23,2.74.96.89,1.88,1.79,2.73,2.79.91,1.06,1.75,2.21,2.38,3.46,0,.01.01.02.02.03.05.41.08.83.1,1.24.02.41.23,1.41-.1,1.74-.27.27-.59.13-.92-.17-.06-.76-.21-1.52-.45-2.25Z"/>
          </g>
          <path class="cls-7" d="M41.87,76.56c.04-8.07.1-16.14,0-24.2-.05-4.08-.14-8.16-.29-12.23-.08-2.04-.17-4.08-.28-6.12-.08-1.53.14-3.65-.49-5.08-.68-1.54-3.08-.68-3.57.6-.12.31-.08.64,0,.96.13.52.25,1.03.34,1.56,1.65,10.11,2.33,20.37,2.31,30.61-.01,5.48-.02,10.96-.37,16.42-.19,2.91-.56,5.8-1.01,8.67-.28,1.79-.92,3.51-1.07,5.33-.06.69-.19,1.77.33,2.33.96,1.04,3.64.83,4.14-.55.66-1.81.05-4.47.02-6.39-.07-3.97-.07-7.95-.05-11.92Z"/>
          <path class="cls-6" d="M41.87,76.56c.02-3.48.04-6.97.05-10.45-.35,2.48-.61,4.98-.78,7.48-.18,2.71-.25,5.42-.2,8.13.05,2.72.21,5.43.49,8.14.16,1.54.36,3.07.6,4.6.45-1.78-.07-4.2-.1-5.98-.07-3.97-.07-7.95-.05-11.92Z"/>
          <path class="cls-10" d="M39.88,62.65c0,2.09,0,4.19-.03,6.28.66.18,1.38.15,2.05-.01.02-5.52.03-11.05-.04-16.57-.05-4.08-.14-8.16-.29-12.23-.08-2.04-.17-4.08-.28-6.12-.08-1.53.14-3.65-.49-5.08-.68-1.54-3.08-.68-3.57.6-.12.31-.08.64,0,.96.13.52.25,1.03.34,1.56,1.65,10.11,2.33,20.37,2.31,30.61Z"/>
          <path class="cls-1" d="M41.87,52.35c-.05-4.08-.14-8.16-.29-12.23-.08-2.04-.17-4.08-.28-6.12-.08-1.53.14-3.65-.49-5.08-.68-1.54-3.08-.68-3.57.6-.02.06-.04.12-.05.18.06.12.15.22.28.3.29.17.63.26.93.41.34.17.65.43.84.76.24.43.34.94.41,1.42.15,1.07.12,2.16.26,3.23.23,1.7.42,3.41.65,5.12.45,3.44.73,6.9.94,10.36.22,3.48.33,6.97.28,10.46-.04,2.42-.15,4.85-.36,7.26.17-.02.34-.06.51-.1.02-5.52.03-11.05-.04-16.57Z"/>
          <g>
            <path class="cls-3" d="M61.26,55.58c-3.14-3.88-11.25-.16-14.19,2.15-2.06,1.62-3.7,3.76-4.75,6.15-.56,1.27-.95,2.6-1.17,3.97-.08.47-.46,1.57-.14,1.99.73.96,2.4-1.54,3-1.86,1.88-.99,4.09-1.07,6.2-1.29,4.77-.5,11.75-2.59,11.89-8.48.02-.73-.1-1.48-.47-2.1-.11-.19-.24-.37-.37-.53Z"/>
            <path class="cls-4" d="M57.26,56.53c-.68.16-1.35.42-1.94.8-.35.23-1.1.76-.9,1.28.18.46.88.54,1.29.54.9,0,1.85-.4,2.6-.86.38-.23.79-.53.97-.94.13-.29.1-.66-.11-.89-.63-.13-1.3-.07-1.92.07Z"/>
            <path class="cls-2" d="M59.28,63.39c-1.76.91-3.7,1.46-5.67,1.69-.98.12-1.97.15-2.96.1-.95-.05-1.91-.16-2.82-.44-.83-.25-1.66-.65-2.24-1.3-.59-.66-.84-1.52-.77-2.4.05-.6.25-1.19.53-1.74-1.26,1.34-2.29,2.89-3.03,4.57-.56,1.27-.95,2.6-1.17,3.97-.08.47-.46,1.57-.14,1.99.73.96,2.4-1.54,3-1.86,1.88-.99,4.09-1.07,6.2-1.29,3.1-.33,7.13-1.32,9.62-3.6-.18.1-.36.2-.54.3Z"/>
            <path class="cls-2" d="M42.91,67.29c1.37-2.94,3.78-5.32,6.35-7.23,2.26-1.67,4.75-3.06,7.36-4.11-1.53.11-3.02.74-4.36,1.46-1.43.77-2.75,1.7-4.07,2.65-1.22.87-2.4,1.77-3.51,2.77-1.19,1.08-2.31,2.26-3.21,3.59,0,.01-.02.02-.02.04-.12.46-.22.93-.29,1.4-.08.47-.46,1.57-.14,1.99.27.35.66.24,1.08-.06.18-.86.46-1.7.83-2.5Z"/>
          </g>
          <g>
            <path class="cls-3" d="M51.56.23c-.81-.43-1.88-.18-2.72.02-.96.23-1.88.59-2.8.94-1.16.45-2.31.97-3.36,1.64-1.06.68-2.02,1.49-2.88,2.4-1.56,1.67-2.69,3.7-3.28,5.91-.58,2.18-.59,4.52-.03,6.71.3,1.17.78,2.26,1.39,3.31.62,1.04,1.33,2.03,1.84,3.13.12.27.24.54.34.81.06.18.35.14.48.08.18-.08.3-.23.3-.43,0,0,0-.02,0-.03.01-.04.03-.09.04-.13.08-.27.12-.55.15-.83.88-7.58,3.49-15.6,8.76-21.29.63-.67,1.48-1.17,1.85-2.05.04-.09,0-.16-.07-.21Z"/>
            <path class="cls-4" d="M36.94,15.23c-.01-1.26.2-2.52.66-3.7.4-1.05.98-2.04,1.62-2.96,1.22-1.74,2.79-3.22,4.53-4.45,1.77-1.26,3.71-2.29,5.69-3.18.62-.28,1.25-.55,1.89-.81-.77-.27-1.72-.06-2.48.13-.96.23-1.88.59-2.8.94-1.16.45-2.31.97-3.36,1.64-1.06.68-2.02,1.49-2.88,2.4-1.56,1.67-2.69,3.7-3.28,5.91-.58,2.18-.59,4.52-.03,6.71.3,1.17.78,2.26,1.39,3.31.01.02.03.04.04.06-.41-1.99-.95-3.96-.98-6Z"/>
            <path class="cls-1" d="M51.56.23c-.19-.1-.4-.17-.62-.2-.83.44-1.62.94-2.37,1.49-2.94,2.17-5.18,5.16-6.74,8.44-1.6,3.36-2.52,7.01-2.96,10.69-.02.15-.19.18-.29.09-.9-.88-1.49-2.03-1.9-3.21-.26-.77-.46-1.56-.59-2.36.04.91.17,1.81.4,2.69.3,1.17.78,2.26,1.39,3.31.62,1.04,1.33,2.03,1.84,3.13.12.27.24.54.34.81.06.18.35.14.48.08.18-.08.3-.23.3-.43,0,0,0-.02,0-.03.01-.04.03-.09.04-.13.08-.27.12-.55.15-.83.88-7.58,3.49-15.6,8.76-21.29.63-.67,1.48-1.17,1.85-2.05.04-.09,0-.16-.07-.21Z"/>
          </g>
        </g>
      </g>
    </g>
  </g>
</svg>