<?xml version="1.0" encoding="UTF-8"?>
<svg xmlns="http://www.w3.org/2000/svg" version="1.1" viewBox="0 0 74.2 151.9">
  <defs>
    <style>
      .cls-1, .cls-2, .cls-3, .cls-4 {
        isolation: isolate;
      }

      .cls-1, .cls-3 {
        mix-blend-mode: multiply;
        opacity: .5;
      }

      .cls-1, .cls-5, .cls-4 {
        fill: #917765;
      }

      .cls-6, .cls-3 {
        fill: #a1632b;
      }

      .cls-7 {
        fill: #a86a4d;
      }

      .cls-4 {
        mix-blend-mode: screen;
      }

      .cls-8 {
        fill: #8c5c12;
      }
    </style>
  </defs>
  <!-- Generator: Adobe Illustrator 28.7.10, SVG Export Plug-In . SVG Version: 1.2.0 Build 236)  -->
  <g>
    <g id="Layer_1">
      <g class="cls-2">
        <g id="Layer_2">
          <g id="Layer_1-2">
            <g>
              <g>
                <g>
                  <path class="cls-6" d="M56.1,39.2c0,.3.1.5.2.8,1.3-.5,2.6-1.1,3.8-1.9.2-.2.5-.3.7-.5,1.1-.8,2.1-1.8,3-2.8.6-.7,1.1-1.4,1.4-2.2.3-.6.5-1.3.6-2,.2-1.9-.3-3.7,0-5.6.1-.9.4-1.9.8-2.7-.7.3-1.5.6-2.3.8-.7.3-1.4.5-2.2.8-1.5.5-2.8,1.2-4.1,2.2-1.6,1.2-3.1,3.1-3.7,5.1-.2,1.1-.2,2.2.2,3.3.3,1,.8,2,1.2,3.1.2.5.4,1,.5,1.6h0Z"/>
                  <path class="cls-3" d="M64,32.4c-1.3,2-3.5,3.5-5.8,4.3-.1,0-.3,0-.3-.2-.2-1.3,0-2.6.4-3.8.7-2.2,1.8-4.2,3.3-6.1.8-1,1.7-2,2.7-2.9-.2.1-.4.2-.6.3-2.4,1.4-4.5,3.3-5.8,5.8-1.1,2.3-1.4,4.8-1.3,7.3,0,.2-.3.3-.4,0-.5-1-1-1.9-1.3-2.9-.5-1.5-.3-3.1.1-4.6-.2.5-.5,1-.6,1.5-.2,1.1-.2,2.2.2,3.3.3,1,.8,2,1.2,3.1.2.5.4,1,.5,1.6,0,.3.1.5.2.8,1.3-.5,2.6-1.1,3.8-1.9.2-.2.5-.3.7-.5,1.1-.8,2.1-1.8,3-2.8.6-.7,1.1-1.4,1.5-2.2.3-.6.5-1.3.6-2,.2-1.5-.1-3-.1-4.4-.4,2.1-.5,4.3-1.7,6.2h0Z"/>
                </g>
                <path class="cls-7" d="M59.2,45.8c-1.7.1-3.4.3-5,.7-1.7.5-3.4,1.1-4.9,2.1-.4.3-.8.5-1.2.8,0,0,0,0,0,0,1.3-1.8,2.8-3.6,4.4-5.2,1.8-1.8,3.8-3.5,6-4.7.1,0,0-.2-.1-.1-2,1.1-3.9,2.5-5.7,4-.6.5-1.1,1-1.7,1.6.2-.6.4-1.3.7-1.9.3-.9.6-1.7.9-2.6.7-1.8,1.3-3.5,2.1-5.2,0,0-.1-.1-.2,0-.9,1.7-1.7,3.4-2.3,5.2-.3.9-.7,1.7-1,2.6-.2.4-.3.9-.5,1.3-.2.4-.3.9-.4,1.3h0c-.8.9-1.6,1.8-2.3,2.8-1.5,2-3,4.1-4.4,6.1-1.1,1.6-2.2,3.3-3.2,5,0-.6,0-1.1,0-1.7,0-.9,0-1.8.1-2.7.2-1.8.7-3.5,1.2-5.1.3-1,.6-1.9.9-2.9,0,0-.2,0-.2,0-.7,1.7-1.3,3.3-1.8,5.1-.5,1.7-.8,3.5-.7,5.2,0,1,0,1.9,0,2.9-.5.7-.9,1.4-1.3,2.2-1.2,2.1-2.3,4.2-3.3,6.4-.5,1.1-1,2.3-1.2,3.6,0,.2.2.3.3.3,0-.2,1.7-6.4,4.8-8.9.8-.7,2.9-2.5,3.8-3,1.8-1.1,3.7-2,5.7-2.7,1.1-.4,2.3-.8,3.5-1.1.1,0,0-.2,0-.2-4.2,1-8.3,2.5-11.8,5.2-.4.3-.8.6-1.1,1,.2-.4.4-.8.6-1.2,1.2-2.2,2.6-4.3,4-6.4,1.1-1.7,3.2-4.9,5.6-6.4.8-.5,1.5-1,2.3-1.4,1.5-.7,3.1-1.1,4.7-1.5.9-.2,1.9-.3,2.8-.4.2,0,.1-.2,0-.2h0Z"/>
                <g>
                  <path class="cls-6" d="M54.6,41.7c-.2.2-.3.4-.5.6,1.2.7,2.5,1.3,3.8,1.8.3,0,.5.1.8.2,1.3.3,2.7.5,4,.6.9,0,1.8,0,2.6-.2.7-.2,1.3-.4,1.9-.8,1.6-1,2.7-2.6,4.3-3.5.8-.5,1.7-.8,2.6-1-.7-.4-1.4-.8-2.1-1.3-.7-.4-1.3-.8-2-1.2-1.3-.8-2.7-1.5-4.2-1.8-2-.5-4.3-.5-6.3.3-1,.5-1.9,1.3-2.5,2.2-.6.9-1.1,1.9-1.7,2.8-.3.5-.6.9-.9,1.4h0Z"/>
                  <path class="cls-3" d="M64.8,43.5c-2.4.2-4.9-.6-6.9-1.8-.1,0-.1-.2,0-.3.9-1,2-1.6,3.2-2.1,2.2-.9,4.5-1.2,6.8-1.2,1.3,0,2.6,0,3.9.3-.2,0-.4-.2-.7-.3-2.6-1-5.4-1.5-8.2-.9-2.5.5-4.6,1.9-6.5,3.5-.2.2-.4,0-.3-.2.5-1,.9-1.9,1.5-2.8.9-1.3,2.2-2.2,3.7-2.8-.5.1-1.1.3-1.6.5-1,.5-1.9,1.3-2.5,2.2-.6.9-1.1,1.9-1.7,2.8-.3.5-.6.9-.9,1.4-.2.2-.3.4-.5.6,1.2.7,2.5,1.3,3.8,1.8.3,0,.5.1.8.2,1.3.3,2.7.5,4,.6.9,0,1.8,0,2.6-.2.7-.2,1.3-.4,1.9-.8,1.3-.8,2.2-1.9,3.4-2.9-1.9,1-3.7,2.3-5.9,2.5h0Z"/>
                </g>
                <g>
                  <path class="cls-8" d="M44,59.7c-.2.2-.3.4-.5.6,1.2.7,2.5,1.3,3.9,1.8.3,0,.5.1.8.2,1.3.3,2.7.5,4,.6.9,0,1.8,0,2.6-.2.7-.2,1.3-.5,1.9-.8,1.6-1,2.7-2.6,4.3-3.6.8-.5,1.7-.8,2.6-1-.7-.4-1.4-.8-2.1-1.3-.7-.4-1.3-.8-2-1.2-1.3-.8-2.7-1.5-4.2-1.8-2-.5-4.3-.5-6.3.3-1,.5-1.9,1.3-2.5,2.2-.6.9-1.1,1.9-1.7,2.8-.3.5-.6.9-.9,1.4h0Z"/>
                  <path class="cls-3" d="M54.2,61.5c-2.4.2-4.9-.6-6.9-1.8-.1,0-.1-.2,0-.3.9-1,2-1.6,3.2-2.1,2.2-.9,4.5-1.2,6.8-1.3,1.3,0,2.6,0,4,.3-.2,0-.4-.2-.7-.3-2.6-1-5.4-1.5-8.2-.8-2.5.6-4.6,1.9-6.5,3.5-.2.2-.4,0-.3-.2.5-1,.8-1.9,1.5-2.8.9-1.3,2.2-2.2,3.7-2.8-.5.1-1.1.3-1.6.5-1,.5-1.9,1.3-2.5,2.2-.6.9-1.1,1.9-1.7,2.8-.3.5-.6.9-.9,1.4-.2.2-.3.4-.5.6,1.2.7,2.5,1.3,3.9,1.8.3,0,.5.1.8.2,1.3.3,2.7.5,4,.6.9,0,1.8,0,2.6-.2.7-.2,1.3-.5,1.9-.8,1.3-.8,2.2-2,3.4-2.9-1.9,1-3.7,2.4-5.9,2.6h0Z"/>
                </g>
                <g>
                  <path class="cls-6" d="M64.6,47.3c-.7-.3-1.3-.7-1.9-1.1-1-.7-2.1-1.2-3.3-1.5-.2,0-.4,0-.7-.1-.9-.1-1.8,0-2.6.2-1.1.3-2,1-2.9,1.7-.5.3-1,.6-1.5.8.1.5.5.9.8,1.2.8.7,1.7,1.3,2.7,1.7,0,0,.1,0,.2,0,.4,0,.7.1,1.1.2,1,.1,2.1.2,3.1,0,1.3-.2,2.7-.7,3.9-1.3.4-.3.9-.5,1.3-.7.4-.2.7-.4,1.1-.5-.5-.2-.9-.4-1.3-.7Z"/>
                  <path class="cls-3" d="M65.7,47.9c-.7.3-1.4.5-2.1.8-.9.3-1.8.5-2.7.6-1,.1-2,0-3.1,0-1,0-1.9-.3-2.8-.5-.6-.2-1.4-.4-1.7-1,0,0,0-.2,0-.3.7-.2,1.5-.5,2.2-.7,1.2-.3,2.5-.5,3.8-.4,1.1,0,2.2.3,3.3.7-.4-.5-1-.7-1.6-.9-1.5-.5-3.1-.5-4.6-.2-1.1.2-2.1.6-3.2.9-.5.2-1,.3-1.5.5,0,0-.1,0-.2,0,.2.4.4.8.8,1.1.8.7,1.7,1.3,2.7,1.7,0,0,.1,0,.2,0,.4,0,.7.1,1.1.2,1,.1,2.1.2,3.1,0,1.3-.2,2.7-.7,3.9-1.3.4-.3.8-.5,1.3-.7.4-.2.7-.4,1.1-.5,0,0-.1,0-.2,0h0Z"/>
                  <path class="cls-6" d="M63.1,45.5h0Z"/>
                </g>
                <g>
                  <path class="cls-8" d="M37.4,48.8s0,0,0,.1c.5,1.1,1.3,2,2.1,2.9.5.5,1,1.1,1.8,1.2.6,0,1.2-.2,1.7-.5,2.3-1.5,3.8-4.3,3-7.1-.7-2.6-2.8-4.6-4.3-6.7-.4-.5-.7-1.1-1.2-1.5-.2,2.6-2,4.7-3,7.1-.6,1.5-.8,3-.2,4.5h0Z"/>
                  <path class="cls-3" d="M46.2,46.5c0,.3,0,.6-.1.9-.2,1.3-.7,2.8-2,3.5-.5.3-1.3.5-1.6-.1-.3-.5-.3-1.2-.3-1.8,0-2.2-.3-4.4-.5-6.6,0-1.1-.2-2.2-.4-3.2,0,0,0,0,0,.1,0,1,0,2,0,3s0,2.2,0,3.3c0,1.2-.2,2.3-.2,3.5,0,.9,0,2-.5,2.8,0,0-.1,0-.2,0-.8-.3-1.3-1-1.7-1.7-.8-1.4-1.1-3-1.2-4.6,0-.3,0-.7,0-1-.6,1.5-.8,3-.2,4.4,0,0,0,0,0,.1.5,1.1,1.3,2,2.1,2.9.5.5,1,1.1,1.8,1.2.6,0,1.2-.2,1.7-.5,2-1.3,3.5-3.7,3.2-6.1h0Z"/>
                </g>
                <g>
                  <path class="cls-8" d="M49.5,36.6s0,0,0,0c.4,1,1.1,1.8,1.8,2.5.4.5.9,1,1.5,1,.5,0,1-.2,1.4-.4,2-1.3,3.3-3.8,2.6-6.1-.6-2.2-2.4-3.9-3.7-5.8-.3-.5-.6-.9-1-1.3-.2,2.3-1.7,4.1-2.6,6.1-.5,1.3-.7,2.6-.2,3.9h0Z"/>
                  <path class="cls-3" d="M57.2,34.5c0,.3,0,.5,0,.8-.2,1.1-.6,2.4-1.7,3-.4.2-1.1.4-1.4-.1-.3-.4-.2-1-.3-1.5,0-1.9-.3-3.8-.5-5.7,0-.9-.2-1.9-.3-2.8,0,0,0,0,0,.1,0,.9,0,1.7,0,2.6s0,1.9,0,2.9c0,1-.2,2-.2,3,0,.8,0,1.7-.5,2.4,0,0-.1,0-.2,0-.7-.3-1.1-.9-1.5-1.5-.7-1.2-.9-2.6-1-4,0-.3,0-.6,0-.9-.5,1.3-.7,2.5-.2,3.8,0,0,0,0,0,0,.4,1,1.1,1.8,1.8,2.5.4.5.9,1,1.5,1,.5,0,1-.2,1.4-.4,1.8-1.1,3-3.2,2.8-5.3h0Z"/>
                </g>
              </g>
              <g>
                <g>
                  <path class="cls-6" d="M17.4,24.5c-.1.2-.3.5-.4.7-1.1-.8-2.2-1.8-3.1-2.9-.2-.2-.3-.5-.5-.7-.8-1.1-1.5-2.3-2.1-3.5-.4-.8-.6-1.6-.8-2.5,0-.7,0-1.4,0-2.1.3-1.9,1.3-3.5,1.6-5.3.1-.9.1-1.9,0-2.8.6.5,1.3,1,2,1.5.6.5,1.2.9,1.9,1.4,1.3.9,2.4,2,3.3,3.2,1.2,1.6,2.1,3.8,2.1,5.9-.1,1.1-.5,2.2-1.1,3.1-.6.9-1.3,1.7-2,2.6-.3.4-.6.9-.9,1.4h0Z"/>
                  <path class="cls-3" d="M11.8,15.7c.7,2.3,2.4,4.3,4.3,5.7.1,0,.3,0,.3,0,.5-1.2.7-2.5.7-3.8,0-2.3-.6-4.6-1.4-6.8-.5-1.2-1.1-2.4-1.8-3.5.2.2.3.3.5.5,2,2,3.4,4.4,3.9,7.2.4,2.5,0,5-.8,7.4,0,.2.2.4.4.2.7-.8,1.5-1.5,2-2.4.9-1.3,1.2-2.9,1.2-4.5.1.5.2,1.1.1,1.6-.1,1.1-.5,2.2-1.1,3.1-.6.9-1.3,1.7-2,2.6-.3.4-.6.9-.9,1.4-.1.2-.3.5-.4.7-1.1-.8-2.2-1.8-3.1-2.9-.2-.2-.3-.5-.5-.7-.8-1.1-1.5-2.3-2.1-3.5-.4-.8-.6-1.6-.8-2.5,0-.7,0-1.4,0-2.1.2-1.5.9-2.8,1.4-4.2-.2,2.1-.8,4.3,0,6.4Z"/>
                </g>
                <path class="cls-7" d="M12.6,29.9c1.6.6,3.2,1.2,4.6,2.1,1.5.9,2.9,2,4.1,3.4.3.4.6.7.9,1.1,0,0,0,0,0,0-.8-2.1-1.7-4.2-2.8-6.2-1.2-2.2-2.7-4.4-4.4-6.2-.1-.1,0-.2.2,0,1.6,1.7,3.1,3.5,4.3,5.4.4.6.8,1.3,1.1,2,0-.7,0-1.4-.1-2,0-.9-.1-1.8-.2-2.8-.1-1.9-.3-3.8-.5-5.6,0-.1.1,0,.2,0,.4,1.9.6,3.7.8,5.6,0,.9.1,1.9.2,2.8,0,.5,0,.9,0,1.4s0,.9,0,1.4h0c.5,1.1,1,2.2,1.5,3.3.9,2.3,1.7,4.7,2.5,7.1.6,1.9,1.2,3.8,1.7,5.7.1-.5.3-1.1.5-1.6.3-.9.5-1.8.6-2.7.3-1.7.3-3.5.3-5.3s0-2,0-3c0,0,.2,0,.2,0,.2,1.8.3,3.6.3,5.4,0,1.8-.2,3.5-.8,5.2-.3.9-.5,1.8-.8,2.8.2.8.5,1.6.7,2.5.6,2.3,1,4.7,1.4,7.1.2,1.2.3,2.5.2,3.8,0,.2-.2.2-.4.2,0-.2.1-6.6-2.1-9.9-.6-.8-2.1-3.2-2.8-4-1.4-1.6-3-2.9-4.7-4.2-1-.7-2-1.4-3-2-.1,0,0-.2.1-.2,3.7,2.2,7.3,4.7,9.9,8.3.3.4.6.8.8,1.2,0-.4-.2-.8-.3-1.3-.5-2.5-1.2-4.9-2-7.3-.6-1.9-1.7-5.6-3.6-7.7-.6-.7-1.1-1.4-1.8-2-1.2-1.1-2.6-2-4.1-2.7-.8-.4-1.7-.8-2.6-1.2-.1,0,0-.2,0-.2h0Z"/>
                <g>
                  <path class="cls-6" d="M18.2,27.3c.1.2.2.5.3.7-1.4.4-2.8.6-4.2.6-.3,0-.6,0-.8,0-1.4,0-2.7-.2-4-.6-.9-.2-1.7-.5-2.4-1-.6-.4-1.1-.8-1.6-1.3-1.3-1.4-1.9-3.2-3.1-4.6-.6-.7-1.4-1.3-2.2-1.7.8-.1,1.6-.4,2.4-.6.8-.2,1.5-.4,2.2-.6,1.5-.4,3-.6,4.6-.6,2.1,0,4.3.7,5.9,2.1.8.8,1.4,1.7,1.8,2.8.3,1,.5,2.1.8,3.2s.3,1,.5,1.6h0Z"/>
                  <path class="cls-3" d="M7.9,26.2c2.2.9,4.9.8,7.2.2.1,0,.2-.2.1-.3-.6-1.2-1.5-2.1-2.5-2.9-1.8-1.5-3.9-2.4-6.2-3.1-1.2-.4-2.5-.7-3.9-.8.2,0,.5,0,.7,0,2.8-.3,5.6,0,8.1,1.5,2.2,1.2,3.9,3.1,5.3,5.2.1.2.4,0,.4-.1-.2-1-.3-2.1-.6-3.1-.5-1.5-1.5-2.7-2.7-3.7.5.3.9.6,1.4.9.8.8,1.4,1.7,1.8,2.8.3,1,.5,2.1.8,3.2.1.5.3,1,.5,1.6.1.2.2.5.3.7-1.4.4-2.8.6-4.2.6-.3,0-.6,0-.8,0-1.4,0-2.7-.2-4-.6-.9-.2-1.7-.5-2.4-1-.6-.4-1.1-.8-1.6-1.3-1-1.1-1.6-2.5-2.4-3.7,1.6,1.5,2.9,3.3,4.9,4.1h0Z"/>
                </g>
                <g>
                  <path class="cls-8" d="M23.4,47.5c.1.2.2.5.3.7-1.4.4-2.8.6-4.2.6-.3,0-.6,0-.8,0-1.4,0-2.7-.2-4-.6-.9-.2-1.7-.5-2.4-1-.6-.4-1.1-.8-1.6-1.3-1.3-1.4-1.9-3.2-3.1-4.6-.6-.7-1.4-1.3-2.2-1.7.8-.1,1.6-.4,2.4-.6.8-.2,1.5-.4,2.2-.6,1.5-.4,3-.6,4.6-.6,2,0,4.3.8,5.9,2.1.8.8,1.4,1.7,1.8,2.8.3,1,.5,2.1.8,3.2.1.5.3,1,.5,1.6h0Z"/>
                  <path class="cls-3" d="M13,46.4c2.2.9,4.9.8,7.2.2.1,0,.2-.2.1-.3-.6-1.2-1.5-2.1-2.5-2.9-1.8-1.5-3.9-2.4-6.2-3.1-1.2-.4-2.6-.7-3.9-.8.2,0,.5,0,.7,0,2.8-.2,5.6.1,8.1,1.5,2.2,1.2,3.9,3.2,5.2,5.2.1.2.4,0,.4-.2-.2-1-.3-2.1-.6-3.1-.5-1.5-1.5-2.8-2.7-3.7.5.3,1,.6,1.4.9.8.8,1.4,1.7,1.8,2.8.3,1,.5,2.1.8,3.2.1.5.3,1,.5,1.6.1.2.2.5.3.7-1.4.4-2.8.6-4.2.6-.3,0-.6,0-.8,0-1.4,0-2.7-.2-4-.6-.9-.2-1.7-.5-2.4-1-.6-.4-1.1-.8-1.6-1.3-1-1.1-1.6-2.5-2.4-3.7,1.6,1.5,2.9,3.3,4.9,4.1h0Z"/>
                </g>
                <g>
                  <path class="cls-6" d="M7,29.9c.7-.1,1.5-.3,2.2-.5,1.2-.4,2.4-.6,3.6-.6.2,0,.4,0,.7,0,.9.1,1.7.4,2.5.9,1,.6,1.6,1.5,2.3,2.4.4.4.7.9,1.2,1.2-.3.4-.7.7-1.1,1-.9.5-2,.8-3.1.9,0,0-.1,0-.2,0-.4,0-.8,0-1.1-.1-1-.2-2-.4-3-.8-1.2-.5-2.4-1.4-3.4-2.3-.3-.4-.7-.8-1.1-1.1-.3-.3-.6-.6-.9-.8.5,0,1-.1,1.4-.3h0Z"/>
                  <path class="cls-3" d="M5.7,30.1c.6.5,1.2.9,1.8,1.3.8.5,1.6,1,2.4,1.3.9.4,1.9.6,2.9.8.9.2,1.9.2,2.8.2.6,0,1.5,0,1.9-.4,0,0,0-.2,0-.3-.6-.4-1.3-.9-1.9-1.2-1.1-.6-2.3-1.2-3.5-1.5-1.1-.3-2.2-.3-3.4-.3.5-.3,1.1-.4,1.8-.5,1.5,0,3.1.4,4.4,1,1,.5,1.9,1.1,2.8,1.8.4.3.9.6,1.3.9,0,0,.1,0,.2.1-.3.4-.6.6-1,.8-.9.5-2,.8-3.1.9,0,0-.1,0-.2,0-.4,0-.8,0-1.1-.1-1-.2-2-.4-3-.8-1.2-.5-2.4-1.4-3.4-2.3-.3-.4-.7-.8-1.1-1.1-.3-.3-.6-.6-.9-.8,0,0,.1,0,.2,0h0Z"/>
                  <path class="cls-6" d="M8.9,28.5h0Z"/>
                </g>
                <g>
                  <path class="cls-8" d="M32.7,39s0,0,0,0c-.8.9-1.8,1.6-2.8,2.2-.6.4-1.3.8-2,.7-.6,0-1.1-.5-1.5-1-1.8-2.1-2.4-5.2-1-7.6,1.4-2.3,4-3.6,6-5.2.5-.4,1-.8,1.6-1.2-.5,2.6.6,5.1.9,7.6.2,1.6,0,3.1-1,4.4Z"/>
                  <path class="cls-3" d="M24.9,34.2c0,.3-.1.6-.1.9-.1,1.3,0,2.9.9,3.9.4.4,1.1.8,1.6.3.5-.4.6-1.1.8-1.6.7-2.1,1.6-4.2,2.4-6.2.4-1,.8-2,1.3-3,0,0,0,0,0,.1-.4.9-.6,1.9-.9,2.8-.3,1.1-.7,2.1-1,3.2-.3,1.1-.5,2.3-.7,3.4-.2.9-.5,1.9-.3,2.8,0,0,0,.1.2.1.8,0,1.5-.6,2.1-1.2,1.1-1.1,1.9-2.6,2.4-4.1.1-.3.2-.7.3-1,.2,1.6,0,3.1-1.1,4.3,0,0,0,0,0,0-.8.9-1.8,1.6-2.8,2.2-.6.4-1.3.8-2,.7-.6,0-1.1-.5-1.5-1-1.6-1.8-2.3-4.5-1.4-6.8h0Z"/>
                </g>
                <g>
                  <path class="cls-8" d="M24.5,23.8s0,0,0,0c-.7.8-1.6,1.4-2.4,1.9-.5.3-1.1.7-1.8.6-.5,0-.9-.4-1.3-.8-1.6-1.8-2.1-4.5-.8-6.6,1.2-2,3.4-3.1,5.2-4.5.4-.3.9-.7,1.4-1-.5,2.2.5,4.4.8,6.6.1,1.4,0,2.7-.9,3.8Z"/>
                  <path class="cls-3" d="M17.7,19.7c0,.3,0,.5-.1.8-.1,1.1,0,2.5.8,3.4.4.4.9.7,1.4.3.4-.3.5-.9.7-1.4.6-1.8,1.4-3.6,2-5.4.3-.9.7-1.8,1.1-2.6,0,0,0,0,0,.1-.3.8-.5,1.6-.8,2.4-.3.9-.6,1.8-.8,2.7-.2,1-.4,2-.6,2.9-.2.8-.5,1.6-.2,2.4,0,0,0,.1.1.1.7,0,1.3-.5,1.8-1,1-1,1.6-2.3,2.1-3.6.1-.3.2-.6.3-.9.1,1.4,0,2.6-.9,3.7,0,0,0,0,0,0-.7.8-1.6,1.4-2.4,1.9-.5.3-1.1.7-1.8.6-.5,0-.9-.4-1.3-.8-1.4-1.6-2-3.9-1.2-5.8h0Z"/>
                </g>
              </g>
              <g>
                <g>
                  <path class="cls-6" d="M38.5,19.7c-.2.2-.4.4-.6.5-.8-1.2-1.4-2.5-2-3.8,0-.3-.2-.5-.2-.8-.4-1.3-.7-2.7-.8-4,0-.9,0-1.8.1-2.6.2-.7.4-1.3.7-1.9.9-1.6,2.5-2.8,3.4-4.4.5-.8.8-1.7.9-2.7.4.7.9,1.4,1.4,2,.4.7.8,1.3,1.3,1.9.9,1.3,1.6,2.7,2,4.2.6,2,.7,4.3,0,6.3-.5,1-1.2,1.9-2.1,2.6-.9.6-1.8,1.2-2.8,1.8-.5.3-.9.6-1.3,1h0Z"/>
                  <path class="cls-3" d="M36.3,9.6c-.1,2.4.8,4.9,2.1,6.8,0,.1.2.1.3,0,.9-.9,1.5-2.1,2-3.3.8-2.2,1-4.5,1-6.8,0-1.3-.2-2.6-.5-3.9,0,.2.2.4.3.6,1.1,2.6,1.7,5.4,1.2,8.1-.5,2.5-1.7,4.7-3.2,6.7-.2.2,0,.4.3.3.9-.5,1.9-.9,2.8-1.6,1.3-1,2.1-2.3,2.6-3.8,0,.6-.2,1.1-.4,1.6-.5,1-1.2,1.9-2.1,2.6-.9.6-1.8,1.2-2.8,1.8-.5.3-.9.6-1.3,1-.2.2-.4.4-.6.5-.8-1.2-1.4-2.5-2-3.8,0-.3-.2-.5-.2-.8-.4-1.3-.7-2.7-.8-4,0-.9,0-1.8.1-2.6.2-.7.4-1.3.7-1.9.7-1.3,1.8-2.3,2.7-3.5-.9,1.9-2.2,3.8-2.3,6h0Z"/>
                </g>
                <path class="cls-7" d="M32.2,23.2c1.3,1.1,2.5,2.2,3.6,3.6,1.1,1.4,2,2.9,2.7,4.6.2.4.3.9.5,1.3h0c0-2.3-.2-4.6-.5-6.8-.4-2.5-1-5-2-7.4,0-.1.1-.1.2,0,1,2.1,1.7,4.3,2.2,6.6.2.8.3,1.5.4,2.3.2-.6.4-1.3.6-1.9.3-.9.5-1.8.8-2.6.5-1.8,1-3.6,1.4-5.5,0-.1.2,0,.2,0-.3,1.9-.7,3.7-1.2,5.6-.2.9-.5,1.8-.8,2.7-.1.5-.3.9-.4,1.3s-.3.9-.5,1.3c0,0,0,0,0,0,.1,1.2.2,2.4.2,3.6,0,2.5,0,5,0,7.5,0,2-.2,4-.4,6,.3-.5.7-.9,1-1.4.5-.7,1.1-1.5,1.5-2.3.9-1.5,1.5-3.2,2.1-4.8.3-.9.7-1.9,1-2.8,0,0,.2,0,.2,0-.5,1.7-.9,3.5-1.6,5.2-.6,1.7-1.5,3.2-2.5,4.7-.6.8-1.1,1.5-1.7,2.3,0,.8-.1,1.7-.2,2.5-.3,2.4-.6,4.8-1.1,7.2-.2,1.2-.6,2.5-1.1,3.6,0,.2-.3.2-.5,0,0-.2,2.4-6.2,1.4-10-.3-1-.9-3.7-1.3-4.7-.8-2-1.8-3.8-3-5.5-.7-1-1.4-2-2.1-2.9,0-.1,0-.2.1,0,2.8,3.3,5.2,7,6.4,11.1.1.5.3,1,.4,1.4,0-.4.1-.9.2-1.3.3-2.5.5-5,.6-7.5,0-2,.3-5.8-.7-8.4-.3-.8-.6-1.7-1-2.5-.8-1.5-1.8-2.8-2.9-4-.6-.7-1.3-1.4-2-2-.1-.1,0-.2.1-.1h0Z"/>
                <g>
                  <path class="cls-6" d="M38.3,22.7c0,.3,0,.5,0,.8-1.4-.1-2.8-.4-4.2-.8-.3-.1-.5-.2-.8-.3-1.3-.5-2.5-1.1-3.6-1.9-.7-.5-1.4-1.1-2-1.7-.4-.5-.8-1.1-1-1.8-.7-1.7-.7-3.7-1.4-5.4-.4-.9-.9-1.7-1.5-2.4.8.1,1.6.2,2.4.2.8.1,1.5.1,2.3.2,1.5.1,3.1.4,4.5,1,1.9.8,3.8,2.2,4.9,4,.5,1,.8,2.1.7,3.2,0,1.1-.2,2.2-.3,3.3,0,.5,0,1.1,0,1.6h0Z"/>
                  <path class="cls-3" d="M29,18.1c1.8,1.6,4.3,2.4,6.6,2.6.1,0,.2-.1.2-.2-.1-1.3-.7-2.5-1.3-3.6-1.2-2-2.9-3.6-4.7-5-1-.8-2.2-1.5-3.4-2.1.2,0,.5.1.7.2,2.7.7,5.2,2,7.1,4.1,1.7,1.9,2.6,4.3,3.2,6.7,0,.2.4.2.4,0,.2-1,.5-2.1.5-3.1,0-1.6-.5-3.1-1.3-4.4.4.4.7.9,1,1.3.5,1,.8,2.1.7,3.2,0,1.1-.2,2.2-.3,3.3,0,.5,0,1.1,0,1.6,0,.3,0,.5,0,.8-1.4-.1-2.8-.4-4.2-.8-.3-.1-.5-.2-.8-.3-1.3-.5-2.5-1.1-3.6-1.9-.7-.5-1.4-1.1-2-1.7-.4-.5-.8-1.1-1-1.8-.6-1.4-.6-2.9-1-4.3,1,1.9,1.6,4.1,3.2,5.5h0Z"/>
                </g>
                <g>
                  <path class="cls-8" d="M36.2,43.5c0,.3,0,.5,0,.8-1.4-.1-2.8-.4-4.2-.8-.3,0-.5-.2-.8-.3-1.2-.5-2.5-1.2-3.6-1.9-.7-.5-1.4-1.1-2-1.8-.4-.5-.8-1.1-1-1.8-.7-1.7-.6-3.7-1.4-5.4-.4-.9-.9-1.7-1.5-2.4.8.1,1.6.2,2.4.2.8.1,1.5.1,2.3.2,1.5.1,3.1.5,4.5,1,1.9.8,3.8,2.2,4.9,4,.5,1,.8,2.1.7,3.2,0,1.1-.2,2.2-.4,3.3,0,.5,0,1.1,0,1.6Z"/>
                  <path class="cls-3" d="M26.9,38.8c1.8,1.6,4.3,2.5,6.6,2.7.1,0,.2,0,.2-.2-.1-1.3-.7-2.5-1.3-3.6-1.2-2-2.9-3.6-4.7-5-1-.8-2.2-1.5-3.3-2.1.2,0,.5.1.7.2,2.7.7,5.2,2,7.1,4.2,1.7,1.9,2.6,4.3,3.2,6.7,0,.2.4.2.4,0,.2-1,.5-2.1.5-3.1,0-1.6-.5-3.1-1.3-4.4.4.4.7.9,1,1.3.5,1,.8,2.1.7,3.2,0,1.1-.2,2.2-.4,3.3,0,.5,0,1.1,0,1.6,0,.3,0,.5,0,.8-1.4-.1-2.8-.4-4.2-.8-.3,0-.5-.2-.8-.3-1.2-.5-2.5-1.2-3.6-1.9-.7-.5-1.4-1.1-2-1.8-.4-.5-.8-1.1-1-1.8-.6-1.4-.6-2.9-1-4.3,1,1.9,1.6,4.1,3.2,5.5h0Z"/>
                </g>
                <g>
                  <path class="cls-6" d="M26.9,21.3c.7.2,1.5.2,2.2.2,1.2,0,2.4.2,3.6.7.2,0,.4.2.6.3.8.4,1.5,1,2,1.7.7.9,1,2,1.4,3.1.2.5.4,1.1.7,1.6-.4.3-.9.5-1.4.5-1,.1-2.2,0-3.2-.2,0,0-.1,0-.2,0-.3-.2-.7-.3-1-.5-.9-.5-1.8-1.1-2.5-1.8-1-.9-1.8-2.1-2.4-3.4-.2-.5-.4-.9-.6-1.4-.2-.4-.4-.7-.6-1.1.5.1,1,.2,1.5.2Z"/>
                  <path class="cls-3" d="M25.7,21.1c.4.6.8,1.3,1.3,1.9.5.7,1.1,1.4,1.8,2,.8.7,1.6,1.3,2.5,1.8.8.5,1.7.9,2.6,1.2.6.2,1.3.5,1.9.2,0,0,.2-.2,0-.3-.4-.6-.9-1.2-1.4-1.8-.8-1-1.8-1.9-2.8-2.6-1-.6-2-1.1-3.1-1.4.6-.1,1.2,0,1.8.2,1.5.5,2.8,1.4,3.8,2.5.8.8,1.4,1.7,2,2.6.3.4.6.9.9,1.3,0,0,0,.1.1.2-.4.2-.8.4-1.2.4-1,.1-2.2,0-3.2-.2,0,0-.1,0-.2,0-.3-.2-.7-.3-1-.5-.9-.5-1.8-1.1-2.5-1.8-1-.9-1.8-2.1-2.4-3.4-.2-.5-.4-.9-.6-1.4-.2-.4-.4-.7-.6-1.1,0,0,.1,0,.2,0h0Z"/>
                  <path class="cls-6" d="M29.2,20.7h0Z"/>
                </g>
                <g>
                  <path class="cls-8" d="M48,38.6s0,0-.1,0c-1,.6-2.2.9-3.4,1.1-.7.1-1.5.3-2.1,0-.5-.3-.8-.8-1-1.4-1-2.5-.5-5.8,1.7-7.5,2.1-1.6,4.9-2,7.4-2.9.6-.2,1.2-.4,1.9-.5-1.4,2.2-1.2,5-1.8,7.5-.4,1.5-1.1,2.9-2.5,3.8h0Z"/>
                  <path class="cls-3" d="M42.3,31.5c-.2.3-.3.5-.4.8-.6,1.2-1.1,2.7-.5,4,.2.5.8,1.1,1.4.9.6-.2,1-.8,1.3-1.3,1.4-1.7,2.9-3.4,4.4-5,.7-.8,1.4-1.6,2.2-2.4,0,0,0,0,0,.1-.7.8-1.2,1.5-1.8,2.3-.7.9-1.4,1.7-2,2.6-.7,1-1.2,2-1.8,2.9s-1.2,1.6-1.2,2.5c0,0,0,.2.1.2.8.2,1.6,0,2.4-.4,1.5-.7,2.7-1.8,3.7-3,.2-.3.4-.5.6-.8-.4,1.5-1.1,2.8-2.5,3.7,0,0,0,0-.1,0-1,.6-2.2.9-3.4,1.1-.7.1-1.5.3-2.1,0-.5-.3-.8-.8-1-1.4-.9-2.2-.6-5,1-6.8h0Z"/>
                </g>
                <g>
                  <path class="cls-8" d="M45.4,21.5s0,0,0,0c-.9.5-1.9.8-3,1-.6.1-1.3.2-1.8,0-.5-.2-.7-.7-.9-1.2-.9-2.2-.4-5,1.5-6.5,1.8-1.4,4.3-1.8,6.4-2.5.5-.2,1.1-.4,1.6-.5-1.2,1.9-1,4.3-1.6,6.5-.3,1.3-1,2.5-2.2,3.2h0Z"/>
                  <path class="cls-3" d="M40.5,15.4c-.1.2-.3.4-.4.7-.5,1-.9,2.3-.4,3.4.2.5.7,1,1.2.8.5-.2.8-.7,1.1-1.1,1.2-1.5,2.5-2.9,3.8-4.3.6-.7,1.2-1.4,1.9-2,0,0,0,0,0,0-.6.6-1.1,1.3-1.6,2-.6.8-1.2,1.5-1.7,2.3-.6.8-1,1.7-1.6,2.5-.4.6-1,1.4-1,2.2,0,0,0,.1,0,.1.7.2,1.4,0,2-.3,1.3-.6,2.3-1.6,3.2-2.6.2-.2.4-.5.5-.7-.3,1.3-1,2.5-2.1,3.2,0,0,0,0,0,0-.9.5-1.9.8-3,1-.6.1-1.3.2-1.8,0-.5-.2-.7-.7-.9-1.2-.8-2-.5-4.3.9-5.9h0Z"/>
                </g>
              </g>
              <g>
                <path class="cls-5" d="M41,26.9c0-.6-1-.3-1.3,0-1.2,1.2-1.3,3.1-1.6,4.6-.3,2.1-3.5,24.8-3.8,27.1-.3,2.3-.6,4.6-.9,6.8-.2,1.9-.4,3.7-.6,5.6-.5-3.7-1.3-7.8-1.7-11.5-.4-3.6-2.2-17.5-3.2-19.1-.4-.6-1.5-.1-1.6,1.9-.2,3.5,3.3,26.6,4.1,34.7.9,8.7,1.5,47.8,1.6,73.7,1,.6,2.1,1,3.3,1.1.4,0,.7,0,1,0-.5-20.9-1.2-60.9-.7-71.8.8-15,2.6-29.8,4.5-44.7.1-1.2.3-2.3.5-3.4.2-1.1.4-2.2.4-3.4,0-.5,0-1.1,0-1.6h0Z"/>
                <path class="cls-4" d="M30.2,69.6c-.1-3.6-.5-7.2-.9-10.8-.7-6-1.7-12-2.5-18-.2.3-.4.9-.5,1.7-.2,3.4,3.1,25.1,4.1,33.9,0-2.2,0-4.5-.1-6.7Z"/>
                <path class="cls-4" d="M38.7,29.3c0-.5.2-1,.3-1.5-.6,1.1-.7,2.5-.9,3.7-.1.7-.6,3.9-1.2,7.9.6-3.4,1.2-6.7,1.8-10.1Z"/>
                <path class="cls-4" d="M32.7,70.3c0,1.5.1,2.9.3,4.4,0-.1,0-.3,0-.4.8-3.6,1.2-7.4,1.4-11.1.2-3.4.2-6.7.5-10.1-.4,2.8-.7,4.9-.7,5.5-.3,2.3-.6,4.6-.9,6.8-.2,1.9-.4,3.7-.6,5.6,0-.2,0-.5,0-.7Z"/>
                <path class="cls-4" d="M32.6,151.1c-.2-6.2-.5-12.4-.6-18.5-.1-4.9-.2-9.7-.3-14.6.2,11.3.3,23,.4,32.8.2.1.3.2.5.3h0Z"/>
                <path class="cls-1" d="M28,46.1c.7,5.1,1.7,10.2,2.6,15.2.7,4,1.5,8.1,2,12.2,0-1.9-.2-3.9-.3-5.8-.4-2.7-.9-5.5-1.2-8.2-.4-3.6-2.2-17.5-3.2-19.1-.1-.2-.3-.3-.6-.2.2,2,.4,3.9.7,5.9h0Z"/>
                <path class="cls-1" d="M41,26.9c-.8,4.3-1.4,8.6-2,12.9-.7,4.9-1.2,9.9-1.9,14.8-.7,5-1.3,10-1.8,15-.7,7.1-1.1,14.2-1.3,21.4,0,.2,0,.4,0,.6.2,4,.1,8,.1,12,0,7.1.2,14.2.4,21.3.2,7.1.3,14.2.4,21.3,0,1.9,0,3.8,0,5.7.1,0,.2,0,.3,0,.4,0,.7,0,1,0-.5-20.9-1.2-60.9-.7-71.8.8-15,2.6-29.8,4.5-44.7.1-1.2.3-2.3.5-3.4.2-1.1.4-2.2.4-3.4,0-.5,0-1.1,0-1.6h0Z"/>
              </g>
              <g>
                <path class="cls-8" d="M43.8,32.3h0c-.9.9-2,1.5-3,2-.7.3-1.4.6-2.1.4-.6-.2-1-.6-1.3-1.1-1.6-2.2-1.9-5.5-.2-7.7,1.6-2.1,4.3-3.2,6.5-4.6.5-.3,1.1-.7,1.7-1-.8,2.5,0,5.1,0,7.7,0,1.6-.4,3.1-1.5,4.2h0Z"/>
                <path class="cls-3" d="M36.5,26.8c0,.3-.2.6-.2.9-.3,1.3-.4,2.9.5,4,.4.5,1,.9,1.6.5.5-.3.7-1,1-1.5.9-2,2-4,3-5.9.5-1,1-1.9,1.6-2.8,0,0,0,0,0,.1-.5.9-.8,1.8-1.2,2.7-.4,1-.9,2-1.3,3.1-.4,1.1-.7,2.2-1.1,3.3-.3.9-.8,1.8-.6,2.8,0,0,0,.1.2.1.8,0,1.6-.4,2.2-.9,1.3-1,2.2-2.4,2.8-3.9.2-.3.3-.6.4-1,0,1.6-.4,3-1.5,4.2h0c-.9.9-2,1.5-3,2-.7.3-1.4.6-2.1.4-.6-.2-1-.6-1.3-1.1-1.4-2-1.8-4.7-.7-6.9h0Z"/>
              </g>
              <g>
                <path class="cls-8" d="M33.1,45.8h0c-.9.9-2,1.5-3,2-.7.3-1.4.6-2.1.4-.6-.2-1-.6-1.4-1.1-1.6-2.2-1.9-5.5-.1-7.7,1.6-2.1,4.3-3.2,6.5-4.6.5-.3,1.1-.7,1.7-1-.8,2.5,0,5.1,0,7.7,0,1.6-.4,3.1-1.5,4.2h0Z"/>
                <path class="cls-3" d="M25.9,40.2c0,.3-.2.6-.2.9-.3,1.3-.4,2.9.5,4,.4.5,1,.9,1.6.5.5-.3.7-1,1-1.5.9-2,2-4,3-5.9.5-1,1-1.9,1.6-2.8,0,0,0,0,0,.1-.5.9-.8,1.8-1.2,2.7-.4,1-.9,2-1.3,3.1-.4,1.1-.7,2.2-1.1,3.3-.3.8-.8,1.8-.6,2.8,0,0,0,.1.1.1.8,0,1.6-.4,2.2-.9,1.3-1,2.2-2.4,2.8-3.8.2-.3.3-.6.4-1,0,1.6-.4,3-1.5,4.2h0c-.9.9-2,1.5-3,2-.7.3-1.4.6-2.1.4-.6-.2-1-.6-1.4-1.1-1.4-2-1.8-4.7-.7-6.9h0Z"/>
              </g>
              <g>
                <path class="cls-8" d="M28.5,33.6s0,0,0,0c-.9.8-2,1.4-3,1.9-.7.3-1.4.6-2.1.4-.6-.2-1-.6-1.4-1.1-1.6-2.2-1.9-5.5-.1-7.7,1.6-2.1,4.3-3.2,6.5-4.6.5-.3,1.1-.7,1.7-1-.8,2.5,0,5.1,0,7.7,0,1.6-.4,3.1-1.5,4.2h0Z"/>
                <path class="cls-3" d="M21.2,28c0,.3-.2.6-.2.9-.3,1.3-.4,2.9.5,3.9.4.5,1,.9,1.6.5.5-.3.7-1,1-1.5.9-2,2-4,3-5.9.5-1,1-1.9,1.6-2.8,0,0,0,0,0,.1-.5.9-.8,1.8-1.2,2.7-.4,1-.9,2-1.3,3.1-.4,1.1-.7,2.2-1.1,3.3-.3.8-.8,1.8-.6,2.8,0,0,0,.1.1.1.8,0,1.6-.4,2.2-.9,1.3-1,2.2-2.4,2.8-3.9.1-.3.3-.6.4-1,0,1.6-.4,3-1.5,4.2,0,0,0,0,0,0-.9.8-2,1.4-3,1.9-.7.3-1.4.6-2.1.4-.6-.2-1-.6-1.4-1.1-1.4-2-1.8-4.7-.7-6.9h0Z"/>
              </g>
              <g>
                <path class="cls-8" d="M26.1,62.9h.1c1,0,2-.2,3-.4.6-.2,1.2-.3,1.6-.8.3-.4.3-.9.3-1.4-.2-2.3-1.7-4.5-4-5-2.2-.5-4.4.3-6.6.5-.5,0-1.1.1-1.6.3,1.9,1.2,2.7,3.3,4.1,5,.9,1,1.9,1.8,3.2,1.9h0Z"/>
                <path class="cls-3" d="M27.8,55.5c.2.1.4.3.6.4.9.7,1.8,1.6,1.8,2.8,0,.5-.2,1.1-.7,1.2-.5,0-1-.3-1.4-.5-1.7-.8-3.4-1.5-5.1-2.2-.8-.3-1.7-.7-2.5-1,0,0,0,0,.1,0,.8.3,1.5.7,2.2,1.1.8.4,1.7.8,2.5,1.3.8.5,1.6,1,2.5,1.5.6.4,1.5.8,1.8,1.5,0,0,0,.1,0,.2-.5.5-1.2.6-1.9.6-1.3,0-2.7-.4-3.9-1-.3-.1-.5-.3-.8-.4.8,1,1.9,1.7,3.2,1.9h.1c1,0,2-.2,3-.4.6-.2,1.2-.3,1.6-.8.3-.4.3-.9.3-1.4-.1-2-1.4-4-3.2-4.7Z"/>
              </g>
            </g>
          </g>
        </g>
      </g>
    </g>
  </g>
</svg>