<?xml version="1.0" encoding="UTF-8"?>
<svg xmlns="http://www.w3.org/2000/svg" viewBox="0 0 74.22 151.86">
  <defs>
    <style>
      .cls-1 {
        fill: #a8a72f;
      }

      .cls-2 {
        mix-blend-mode: screen;
      }

      .cls-2, .cls-3, .cls-4 {
        fill: #916d5d;
      }

      .cls-5, .cls-6 {
        fill: #79a12e;
      }

      .cls-5, .cls-3 {
        mix-blend-mode: multiply;
        opacity: .53;
      }

      .cls-7 {
        isolation: isolate;
      }

      .cls-8 {
        fill: #678c35;
      }
    </style>
  </defs>
  <g class="cls-7">
    <g id="Layer_2">
      <g id="Layer_1-2" data-name="Layer_1">
        <g>
          <g>
            <g>
              <path class="cls-6" d="M56.14,39.21c.06.26.11.52.17.78,1.34-.48,2.62-1.12,3.81-1.89.23-.17.45-.34.67-.51,1.08-.84,2.1-1.75,2.98-2.8.57-.67,1.06-1.4,1.45-2.19.27-.63.46-1.29.55-1.98.23-1.87-.31-3.72-.08-5.58.12-.94.41-1.85.85-2.68-.74.34-1.54.6-2.31.84-.71.3-1.44.52-2.16.78-1.46.52-2.85,1.23-4.09,2.16-1.64,1.23-3.1,3.07-3.66,5.11-.21,1.1-.19,2.24.15,3.32.32,1.05.79,2.05,1.18,3.07.19.52.36,1.03.48,1.57Z"/>
              <path class="cls-5" d="M63.95,32.35c-1.32,1.99-3.52,3.48-5.75,4.26-.13.05-.26-.04-.28-.17-.2-1.27,0-2.59.36-3.82.65-2.24,1.83-4.25,3.28-6.07.81-1.02,1.71-2.01,2.69-2.9-.21.11-.41.22-.61.34-2.43,1.38-4.55,3.3-5.79,5.84-1.11,2.27-1.38,4.8-1.33,7.29,0,.24-.3.31-.4.1-.46-.95-.97-1.88-1.28-2.89-.47-1.53-.35-3.1.11-4.61-.25.49-.46,1.01-.61,1.53-.21,1.1-.19,2.24.15,3.32.32,1.05.79,2.05,1.18,3.07.19.52.36,1.03.48,1.57.06.26.11.52.17.78,1.34-.48,2.62-1.12,3.81-1.89.23-.17.45-.34.67-.51,1.08-.84,2.1-1.75,2.98-2.8.57-.67,1.06-1.4,1.45-2.19.27-.63.46-1.29.55-1.98.18-1.48-.12-2.96-.13-4.44-.43,2.09-.47,4.34-1.69,6.17Z"/>
            </g>
            <path class="cls-1" d="M59.2,45.75c-1.69.14-3.38.31-5.03.73-1.73.45-3.37,1.12-4.86,2.12-.39.26-.77.53-1.15.81,0-.01.02-.03.03-.04,1.35-1.83,2.82-3.57,4.44-5.17,1.82-1.79,3.8-3.45,6.01-4.73.13-.08-.04-.18-.14-.13-2.03,1.13-3.92,2.47-5.65,4.02-.57.51-1.12,1.05-1.66,1.6.25-.63.44-1.28.66-1.91.3-.87.61-1.74.93-2.61.66-1.76,1.32-3.53,2.1-5.24.04-.09-.12-.11-.15-.04-.87,1.69-1.66,3.4-2.35,5.17-.34.86-.66,1.73-.98,2.61-.16.44-.31.88-.46,1.33-.15.44-.3.88-.39,1.33,0,.01,0,.02,0,.03-.82.89-1.59,1.82-2.33,2.78-1.53,1.99-2.98,4.06-4.4,6.13-1.13,1.64-2.21,3.31-3.23,5.03.03-.56,0-1.14,0-1.69,0-.92.03-1.83.14-2.74.21-1.75.67-3.45,1.17-5.14.28-.96.59-1.91.9-2.86.03-.09-.15-.1-.18-.03-.65,1.68-1.32,3.35-1.8,5.09-.47,1.7-.75,3.48-.74,5.25,0,.96.02,1.91,0,2.86-.47.71-.92,1.43-1.34,2.17-1.21,2.09-2.33,4.23-3.35,6.42-.53,1.14-1,2.33-1.23,3.57-.04.21.15.3.35.29.05-.17,1.73-6.4,4.79-8.88.81-.65,2.91-2.46,3.79-3.01,1.79-1.1,3.72-1.98,5.69-2.69,1.13-.41,2.28-.76,3.45-1.07.14-.04.07-.2-.06-.17-4.19,1.02-8.34,2.5-11.78,5.17-.39.3-.77.62-1.14.95.2-.39.41-.77.62-1.15,1.21-2.2,2.56-4.33,3.97-6.41,1.12-1.66,3.16-4.9,5.56-6.36.77-.46,1.48-.99,2.3-1.37,1.51-.7,3.09-1.14,4.72-1.46.92-.18,1.86-.32,2.79-.42.15-.02.12-.18-.03-.17Z"/>
            <g>
              <path class="cls-6" d="M54.58,41.71c-.17.21-.34.41-.5.62,1.21.74,2.51,1.34,3.85,1.79.27.07.54.14.82.21,1.33.32,2.68.54,4.04.57.88.02,1.76-.05,2.62-.24.66-.18,1.29-.44,1.88-.81,1.6-.99,2.71-2.57,4.3-3.55.81-.5,1.7-.83,2.62-1.01-.73-.37-1.43-.82-2.09-1.27-.67-.37-1.3-.79-1.96-1.2-1.32-.81-2.74-1.46-4.24-1.84-1.99-.51-4.33-.49-6.27.33-.99.52-1.86,1.26-2.5,2.19-.61.91-1.1,1.9-1.66,2.84-.28.47-.58.93-.93,1.36Z"/>
              <path class="cls-5" d="M64.81,43.51c-2.38.21-4.91-.57-6.92-1.82-.12-.07-.14-.23-.04-.33.87-.95,2.02-1.61,3.2-2.1,2.15-.9,4.46-1.23,6.78-1.24,1.3,0,2.64.07,3.94.29-.22-.09-.43-.18-.65-.27-2.6-1.03-5.41-1.49-8.17-.87-2.46.55-4.6,1.92-6.51,3.52-.18.15-.43-.04-.33-.25.45-.95.86-1.93,1.45-2.81.9-1.32,2.2-2.21,3.67-2.79-.54.11-1.07.27-1.57.48-.99.52-1.86,1.26-2.5,2.19-.61.91-1.1,1.9-1.66,2.84-.28.47-.58.93-.93,1.36-.17.21-.34.41-.5.62,1.21.74,2.51,1.34,3.85,1.79.27.07.54.14.82.21,1.33.32,2.68.54,4.04.57.88.02,1.76-.05,2.62-.24.66-.18,1.29-.44,1.88-.81,1.27-.78,2.24-1.94,3.38-2.88-1.9.97-3.67,2.34-5.87,2.54Z"/>
            </g>
            <g>
              <path class="cls-8" d="M43.96,59.69c-.17.21-.33.42-.5.62,1.22.74,2.52,1.33,3.86,1.78.27.07.54.14.82.21,1.33.31,2.68.53,4.05.56.88.02,1.76-.05,2.62-.25.66-.19,1.29-.45,1.88-.81,1.6-.99,2.7-2.58,4.3-3.57.81-.5,1.7-.84,2.62-1.02-.73-.36-1.43-.82-2.1-1.27-.67-.37-1.31-.79-1.96-1.19-1.32-.81-2.74-1.45-4.25-1.83-1.99-.5-4.34-.48-6.27.35-.99.53-1.86,1.26-2.49,2.2-.61.91-1.09,1.9-1.65,2.85-.28.48-.58.93-.92,1.36Z"/>
              <path class="cls-5" d="M54.2,61.46c-2.38.22-4.92-.56-6.93-1.8-.12-.07-.14-.23-.04-.33.87-.95,2.02-1.62,3.2-2.12,2.15-.91,4.46-1.24,6.78-1.26,1.3-.01,2.64.06,3.95.27-.22-.09-.43-.18-.65-.26-2.6-1.02-5.42-1.47-8.18-.84-2.46.56-4.6,1.94-6.51,3.55-.18.15-.43-.04-.33-.25.45-.95.85-1.94,1.45-2.82.9-1.33,2.2-2.22,3.66-2.81-.54.11-1.07.27-1.57.49-.99.53-1.86,1.26-2.49,2.2-.61.91-1.09,1.9-1.65,2.85-.28.48-.58.93-.92,1.36-.17.21-.33.42-.5.62,1.22.74,2.52,1.33,3.86,1.78.27.07.54.14.82.21,1.33.31,2.68.53,4.05.56.88.02,1.76-.05,2.62-.25.66-.19,1.29-.45,1.88-.81,1.27-.79,2.23-1.95,3.37-2.89-1.9.98-3.67,2.36-5.86,2.56Z"/>
            </g>
            <g>
              <path class="cls-6" d="M64.62,47.32c-.68-.31-1.31-.71-1.94-1.13-1.02-.69-2.09-1.25-3.29-1.54-.21-.05-.43-.09-.65-.13-.87-.12-1.75-.08-2.62.19-1.11.35-1.99,1.03-2.93,1.67-.46.31-.95.62-1.47.85.13.49.45.9.8,1.25.75.74,1.73,1.33,2.7,1.73.06.03.13.05.2.08.37.08.74.14,1.11.19,1.02.13,2.07.16,3.09.03,1.35-.17,2.7-.65,3.91-1.28.42-.26.85-.53,1.31-.73.36-.19.72-.38,1.1-.52-.46-.15-.9-.39-1.32-.66Z"/>
              <path class="cls-5" d="M65.74,47.9c-.7.28-1.41.54-2.13.76-.88.27-1.77.47-2.69.57-1.02.11-2.05.07-3.06-.03-.95-.1-1.87-.29-2.78-.55-.57-.16-1.41-.36-1.7-.95-.05-.1-.02-.22.09-.26.73-.24,1.46-.47,2.21-.65,1.24-.3,2.51-.47,3.79-.41,1.13.06,2.24.3,3.3.69-.41-.45-.98-.74-1.56-.93-1.45-.48-3.07-.5-4.57-.23-1.09.19-2.13.56-3.17.92-.5.17-1,.35-1.51.5-.07.02-.13.04-.2.06.15.42.43.78.75,1.09.75.74,1.73,1.33,2.7,1.73.06.03.13.05.2.08.37.08.74.14,1.11.19,1.02.13,2.07.16,3.09.03,1.35-.17,2.7-.65,3.91-1.28.42-.26.85-.53,1.31-.73.36-.19.72-.38,1.1-.52-.07-.02-.13-.05-.2-.08Z"/>
              <path class="cls-6" d="M63.12,45.48s0,0,0,0c0,0,0,0,0,0,0,0,0,0,0,0Z"/>
            </g>
            <g>
              <path class="cls-8" d="M37.4,48.83s.03.08.05.12c.49,1.1,1.29,2.03,2.1,2.92.49.54,1.05,1.1,1.77,1.19.59.07,1.17-.19,1.67-.51,2.32-1.47,3.81-4.34,3.05-7.06-.72-2.58-2.78-4.57-4.27-6.71-.36-.52-.73-1.08-1.18-1.55-.21,2.63-2.01,4.73-2.97,7.1-.6,1.48-.84,2.99-.21,4.49Z"/>
              <path class="cls-5" d="M46.21,46.46c-.03.3-.07.6-.12.9-.23,1.3-.73,2.79-1.95,3.47-.51.29-1.26.45-1.64-.12-.33-.5-.29-1.21-.31-1.79-.07-2.22-.34-4.42-.54-6.63-.1-1.06-.18-2.16-.4-3.23,0,.04.01.09.01.13.08.99.09,1.98.09,2.97,0,1.11.08,2.21.04,3.32-.04,1.16-.19,2.31-.24,3.46-.04.9,0,1.99-.52,2.77-.04.06-.12.1-.2.08-.77-.3-1.3-.99-1.68-1.69-.78-1.41-1.09-3.04-1.17-4.64-.02-.35-.02-.7,0-1.05-.58,1.46-.8,2.95-.19,4.43.02.04.03.08.05.12.49,1.1,1.29,2.03,2.1,2.92.49.54,1.05,1.1,1.77,1.19.59.07,1.17-.19,1.67-.51,2.04-1.3,3.45-3.69,3.22-6.1Z"/>
            </g>
            <g>
              <path class="cls-8" d="M49.54,36.59s.03.07.04.1c.42.95,1.11,1.75,1.81,2.52.42.47.91.95,1.53,1.03.51.06,1.01-.16,1.44-.44,2-1.27,3.29-3.75,2.63-6.09-.62-2.23-2.4-3.94-3.69-5.79-.31-.45-.63-.93-1.02-1.34-.18,2.27-1.74,4.08-2.57,6.13-.52,1.27-.72,2.58-.18,3.88Z"/>
              <path class="cls-5" d="M57.15,34.54c-.03.26-.06.52-.1.77-.2,1.12-.63,2.41-1.69,2.99-.44.25-1.09.39-1.42-.11-.28-.43-.25-1.05-.26-1.54-.06-1.91-.3-3.81-.47-5.72-.08-.92-.16-1.87-.34-2.79,0,.04,0,.08.01.11.07.85.08,1.71.08,2.56,0,.96.07,1.91.04,2.87-.04,1-.16,1.99-.21,2.99-.04.78,0,1.72-.45,2.39-.03.05-.11.09-.17.07-.66-.26-1.12-.86-1.45-1.46-.67-1.22-.94-2.63-1.01-4-.01-.3-.02-.6,0-.91-.5,1.26-.69,2.55-.16,3.82.01.03.03.07.04.1.42.95,1.11,1.75,1.81,2.52.42.47.91.95,1.53,1.03.51.06,1.01-.16,1.44-.44,1.77-1.12,2.98-3.18,2.78-5.26Z"/>
            </g>
          </g>
          <g>
            <g>
              <path class="cls-6" d="M17.39,24.47c-.13.23-.26.47-.38.7-1.15-.84-2.2-1.81-3.13-2.88-.17-.22-.34-.45-.5-.68-.8-1.1-1.52-2.27-2.08-3.52-.35-.8-.63-1.65-.78-2.51-.08-.68-.08-1.37.03-2.05.3-1.86,1.34-3.49,1.64-5.34.15-.94.12-1.89-.07-2.81.62.54,1.31,1.01,1.98,1.45.6.48,1.23.9,1.86,1.35,1.26.91,2.39,1.97,3.32,3.22,1.23,1.64,2.11,3.82,2.09,5.93-.1,1.12-.45,2.21-1.07,3.15-.6.91-1.34,1.74-1.99,2.62-.33.44-.63.89-.9,1.38Z"/>
              <path class="cls-5" d="M11.81,15.7c.71,2.28,2.41,4.32,4.33,5.7.11.08.26.04.32-.09.55-1.17.72-2.49.72-3.77,0-2.33-.57-4.6-1.45-6.75-.49-1.21-1.07-2.41-1.77-3.54.17.16.33.33.49.5,1.95,2.01,3.44,4.44,3.93,7.23.43,2.49-.02,4.99-.77,7.37-.07.23.2.38.36.21.71-.78,1.46-1.54,2.04-2.42.88-1.34,1.2-2.88,1.18-4.46.11.54.16,1.1.15,1.64-.1,1.12-.45,2.21-1.07,3.15-.6.91-1.34,1.74-1.99,2.62-.33.44-.63.89-.9,1.38-.13.23-.26.47-.38.7-1.15-.84-2.2-1.81-3.13-2.88-.17-.22-.34-.45-.5-.68-.8-1.1-1.52-2.27-2.08-3.52-.35-.8-.63-1.65-.78-2.51-.08-.68-.08-1.37.03-2.05.24-1.48.94-2.81,1.37-4.23-.17,2.13-.76,4.29-.1,6.4Z"/>
            </g>
            <path class="cls-1" d="M12.62,29.89c1.59.6,3.16,1.24,4.62,2.11,1.53.91,2.92,2.02,4.07,3.39.3.36.59.73.88,1.1,0-.02-.01-.03-.02-.05-.78-2.13-1.71-4.22-2.81-6.2-1.24-2.23-2.68-4.37-4.44-6.23-.11-.11.09-.17.17-.08,1.63,1.66,3.07,3.46,4.3,5.44.41.65.79,1.32,1.14,2.01-.06-.67-.07-1.35-.1-2.02-.04-.92-.1-1.84-.16-2.76-.14-1.87-.28-3.76-.55-5.62-.01-.1.14-.07.16,0,.36,1.87.64,3.73.81,5.63.08.92.15,1.85.21,2.78.03.47.05.94.07,1.4.02.46.04.93,0,1.39,0,.01,0,.02,0,.02.54,1.09,1.02,2.2,1.46,3.32.91,2.34,1.72,4.73,2.51,7.12.62,1.89,1.2,3.8,1.69,5.73.13-.55.31-1.09.47-1.63.26-.88.48-1.76.63-2.67.29-1.74.32-3.5.32-5.26,0-1-.03-2-.07-2.99,0-.09.17-.05.18.03.16,1.8.32,3.59.3,5.39-.03,1.77-.25,3.55-.76,5.25-.27.92-.55,1.83-.8,2.75.25.81.48,1.63.68,2.46.57,2.34,1.05,4.72,1.42,7.1.19,1.24.31,2.52.18,3.77-.02.21-.23.24-.42.18,0-.18.13-6.63-2.12-9.87-.59-.85-2.1-3.18-2.8-3.95-1.41-1.56-3.02-2.94-4.71-4.18-.97-.71-1.98-1.37-3.01-1.99-.12-.07,0-.22.11-.15,3.74,2.15,7.31,4.73,9.86,8.26.29.4.57.81.83,1.23-.09-.43-.18-.85-.27-1.28-.55-2.45-1.25-4.87-2.02-7.27-.61-1.91-1.66-5.59-3.56-7.66-.61-.66-1.15-1.37-1.83-1.96-1.25-1.09-2.65-1.96-4.12-2.72-.84-.43-1.69-.83-2.56-1.19-.14-.06-.06-.21.07-.16Z"/>
            <g>
              <path class="cls-6" d="M18.18,27.3c.1.25.21.49.31.74-1.37.37-2.78.58-4.2.64-.28,0-.56-.02-.84-.03-1.36-.07-2.72-.23-4.04-.58-.85-.22-1.68-.54-2.44-.96-.58-.36-1.12-.79-1.58-1.3-1.26-1.39-1.88-3.22-3.14-4.61-.64-.7-1.4-1.27-2.24-1.7.81-.15,1.6-.39,2.37-.64.75-.16,1.47-.4,2.21-.6,1.49-.41,3.04-.63,4.58-.58,2.05.07,4.29.74,5.93,2.07.81.78,1.44,1.73,1.79,2.8.34,1.04.52,2.13.8,3.19.14.53.3,1.05.51,1.56Z"/>
              <path class="cls-5" d="M7.86,26.17c2.22.87,4.87.82,7.15.19.14-.04.19-.18.13-.31-.57-1.16-1.49-2.11-2.49-2.92-1.81-1.46-3.94-2.43-6.16-3.09-1.25-.37-2.55-.67-3.87-.83.23-.03.46-.05.7-.07,2.78-.26,5.61.09,8.09,1.45,2.21,1.22,3.88,3.13,5.27,5.2.13.2.42.08.39-.15-.17-1.04-.28-2.1-.61-3.1-.49-1.52-1.5-2.74-2.74-3.71.49.26.95.56,1.38.91.81.78,1.44,1.73,1.79,2.8.34,1.04.52,2.13.8,3.19.14.53.3,1.05.51,1.56.1.25.21.49.31.74-1.37.37-2.78.58-4.2.64-.28,0-.56-.02-.84-.03-1.36-.07-2.72-.23-4.04-.58-.85-.22-1.68-.54-2.44-.96-.58-.36-1.12-.79-1.58-1.3-1-1.11-1.6-2.49-2.44-3.71,1.56,1.46,2.87,3.28,4.92,4.08Z"/>
            </g>
            <g>
              <path class="cls-8" d="M23.35,47.53c.1.25.2.49.31.74-1.37.37-2.79.57-4.21.63-.28,0-.56-.02-.84-.03-1.36-.07-2.73-.24-4.04-.59-.85-.23-1.68-.54-2.44-.97-.58-.36-1.12-.79-1.58-1.31-1.26-1.4-1.87-3.23-3.13-4.62-.64-.71-1.4-1.28-2.23-1.71.81-.14,1.61-.39,2.37-.63.75-.16,1.48-.39,2.22-.6,1.49-.41,3.04-.62,4.59-.57,2.05.07,4.3.75,5.92,2.1.8.78,1.43,1.73,1.78,2.81.33,1.04.52,2.13.79,3.2.14.54.3,1.05.5,1.57Z"/>
              <path class="cls-5" d="M13.02,46.37c2.22.88,4.88.84,7.16.21.14-.04.19-.18.13-.31-.57-1.16-1.49-2.12-2.48-2.93-1.81-1.47-3.94-2.44-6.16-3.11-1.25-.38-2.55-.68-3.87-.84.23-.03.47-.05.7-.07,2.78-.25,5.62.11,8.09,1.48,2.2,1.22,3.87,3.15,5.25,5.23.13.2.42.08.39-.15-.16-1.04-.28-2.1-.6-3.11-.49-1.53-1.49-2.75-2.73-3.72.49.26.95.56,1.37.91.8.78,1.43,1.74,1.78,2.81.33,1.04.52,2.13.79,3.2.14.54.3,1.05.5,1.57.1.25.2.49.31.74-1.37.37-2.79.57-4.21.63-.28,0-.56-.02-.84-.03-1.36-.07-2.73-.24-4.04-.59-.85-.23-1.68-.54-2.44-.97-.58-.36-1.12-.79-1.58-1.31-1-1.11-1.6-2.5-2.43-3.72,1.55,1.47,2.86,3.29,4.91,4.1Z"/>
            </g>
            <g>
              <path class="cls-6" d="M6.98,29.88c.74-.1,1.46-.32,2.18-.55,1.18-.37,2.35-.62,3.6-.56.22.01.44.03.66.06.86.13,1.7.41,2.46.92.97.64,1.62,1.54,2.35,2.43.35.43.74.86,1.17,1.23-.26.43-.68.74-1.12.97-.93.5-2.03.79-3.08.9-.07,0-.14.01-.21.02-.38-.03-.75-.07-1.12-.13-1.02-.16-2.03-.43-2.98-.84-1.25-.54-2.41-1.38-3.39-2.33-.33-.37-.67-.75-1.05-1.06-.29-.29-.59-.56-.91-.8.49-.02.97-.13,1.45-.26Z"/>
              <path class="cls-5" d="M5.74,30.12c.6.46,1.2.91,1.83,1.33.77.5,1.57.95,2.42,1.3.94.39,1.94.64,2.95.83.94.17,1.88.24,2.83.25.6,0,1.46.05,1.9-.44.08-.08.08-.2-.02-.27-.63-.44-1.27-.86-1.94-1.24-1.11-.63-2.28-1.16-3.52-1.45-1.1-.26-2.23-.34-3.36-.26.52-.31,1.15-.43,1.75-.45,1.52-.05,3.09.38,4.45,1.05.99.49,1.89,1.14,2.79,1.77.43.31.87.61,1.31.9.06.04.12.07.17.11-.26.36-.64.63-1.03.84-.93.5-2.03.79-3.08.9-.07,0-.14.01-.21.02-.38-.03-.75-.07-1.12-.13-1.02-.16-2.03-.43-2.98-.84-1.25-.54-2.41-1.38-3.39-2.33-.33-.37-.67-.75-1.05-1.06-.29-.29-.59-.56-.91-.8.07,0,.14-.01.21-.02Z"/>
              <path class="cls-6" d="M8.93,28.54s0,0,0,0c0,0,0,0,0,0,0,0,0,0,0,0Z"/>
            </g>
            <g>
              <path class="cls-8" d="M32.68,38.95s-.05.07-.08.1c-.78.92-1.8,1.59-2.83,2.21-.62.38-1.32.76-2.04.65-.58-.1-1.07-.51-1.46-.95-1.81-2.06-2.44-5.23-.95-7.63,1.41-2.27,3.95-3.61,5.98-5.24.5-.4,1-.83,1.56-1.16-.54,2.58.61,5.1.87,7.65.16,1.58-.03,3.11-1.05,4.37Z"/>
              <path class="cls-5" d="M24.89,34.2c-.05.3-.1.6-.13.89-.14,1.31-.08,2.88.91,3.87.41.42,1.09.79,1.61.34.46-.39.61-1.08.79-1.63.69-2.11,1.56-4.15,2.37-6.21.39-.99.78-2.03,1.28-2.99-.02.04-.03.08-.05.12-.36.92-.64,1.87-.92,2.82-.32,1.06-.7,2.1-.97,3.18-.28,1.12-.47,2.27-.74,3.39-.21.87-.55,1.91-.27,2.81.02.07.09.13.17.13.82-.07,1.52-.59,2.09-1.15,1.14-1.14,1.9-2.62,2.42-4.13.11-.33.21-.66.3-1.01.15,1.56-.05,3.06-1.06,4.3-.03.03-.05.07-.08.1-.78.92-1.8,1.59-2.83,2.21-.62.38-1.32.76-2.04.65-.58-.1-1.07-.51-1.46-.95-1.6-1.82-2.28-4.5-1.39-6.76Z"/>
            </g>
            <g>
              <path class="cls-8" d="M24.45,23.8s-.05.06-.07.09c-.67.79-1.56,1.37-2.44,1.91-.54.33-1.14.66-1.76.56-.5-.08-.92-.44-1.26-.82-1.56-1.78-2.11-4.52-.82-6.58,1.22-1.96,3.41-3.11,5.16-4.53.43-.34.87-.72,1.35-1-.46,2.23.52,4.4.75,6.6.14,1.37-.03,2.68-.91,3.77Z"/>
              <path class="cls-5" d="M17.72,19.7c-.05.26-.09.51-.12.77-.13,1.13-.07,2.49.78,3.35.36.36.94.68,1.39.29.39-.34.53-.94.68-1.41.6-1.82,1.35-3.58,2.05-5.36.34-.86.67-1.75,1.11-2.58-.01.04-.03.07-.04.11-.31.8-.55,1.62-.79,2.44-.27.92-.6,1.81-.84,2.74-.24.97-.4,1.96-.64,2.93-.18.75-.47,1.65-.24,2.42.02.06.08.12.14.11.71-.06,1.32-.51,1.8-.99.99-.98,1.64-2.26,2.09-3.56.1-.28.19-.57.26-.87.13,1.35-.05,2.64-.91,3.72-.02.03-.05.06-.07.09-.67.79-1.56,1.37-2.44,1.91-.54.33-1.14.66-1.76.56-.5-.08-.92-.44-1.26-.82-1.38-1.57-1.97-3.89-1.2-5.83Z"/>
            </g>
          </g>
          <g>
            <g>
              <path class="cls-6" d="M38.55,19.74c-.2.17-.4.35-.6.53-.79-1.18-1.44-2.45-1.95-3.78-.09-.27-.17-.54-.24-.81-.37-1.31-.65-2.66-.75-4.02-.06-.88-.03-1.76.13-2.63.15-.67.39-1.31.73-1.92.92-1.64,2.45-2.82,3.37-4.45.46-.83.76-1.73.9-2.67.4.72.88,1.4,1.36,2.04.4.66.85,1.27,1.28,1.9.87,1.28,1.57,2.68,2.02,4.16.59,1.97.68,4.31-.07,6.28-.48,1.01-1.18,1.92-2.08,2.59-.88.65-1.85,1.18-2.77,1.78-.46.3-.9.62-1.32.98Z"/>
              <path class="cls-5" d="M36.31,9.59c-.11,2.39.78,4.88,2.11,6.84.08.12.23.13.33.03.91-.91,1.53-2.09,1.97-3.29.81-2.19,1.04-4.51.95-6.83-.05-1.3-.18-2.63-.45-3.93.1.21.2.42.29.64,1.14,2.55,1.72,5.35,1.22,8.13-.45,2.48-1.73,4.68-3.25,6.66-.15.19.06.43.27.32.93-.49,1.9-.94,2.75-1.57,1.29-.96,2.12-2.3,2.64-3.79-.09.55-.22,1.08-.42,1.6-.48,1.01-1.18,1.92-2.08,2.59-.88.65-1.85,1.18-2.77,1.78-.46.3-.9.62-1.32.98-.2.17-.4.35-.6.53-.79-1.18-1.44-2.45-1.95-3.78-.09-.27-.17-.54-.24-.81-.37-1.31-.65-2.66-.75-4.02-.06-.88-.03-1.76.13-2.63.15-.67.39-1.31.73-1.92.73-1.31,1.85-2.32,2.74-3.5-.89,1.95-2.19,3.77-2.29,5.97Z"/>
            </g>
            <path class="cls-1" d="M32.21,23.2c1.28,1.11,2.54,2.25,3.62,3.57,1.13,1.38,2.05,2.9,2.66,4.58.16.44.31.89.45,1.33,0-.02,0-.03,0-.05,0-2.27-.16-4.55-.52-6.79-.41-2.52-1.02-5.03-2.04-7.37-.06-.14.14-.13.19-.02.97,2.11,1.7,4.3,2.18,6.58.16.75.28,1.51.39,2.28.17-.65.4-1.29.6-1.93.28-.88.54-1.77.79-2.65.51-1.81,1.02-3.63,1.4-5.47.02-.1.16-.02.15.06-.3,1.88-.67,3.73-1.16,5.56-.24.9-.49,1.79-.75,2.68-.13.45-.28.9-.42,1.34-.14.44-.28.89-.48,1.3,0,0-.01.01-.02.02.13,1.2.21,2.41.23,3.62.06,2.51,0,5.03-.08,7.54-.06,1.99-.17,3.98-.37,5.96.31-.47.67-.92,1-1.37.54-.74,1.06-1.49,1.51-2.29.86-1.54,1.5-3.18,2.1-4.83.34-.94.65-1.89.96-2.84.03-.09.18.01.16.09-.47,1.74-.92,3.48-1.57,5.17-.63,1.65-1.45,3.25-2.51,4.67-.57.77-1.14,1.53-1.7,2.3-.04.85-.11,1.7-.2,2.55-.27,2.4-.62,4.79-1.1,7.16-.25,1.23-.57,2.47-1.12,3.6-.09.19-.3.15-.46.03.06-.17,2.4-6.18,1.39-9.99-.27-1.01-.89-3.71-1.28-4.67-.79-1.95-1.83-3.79-3-5.54-.67-1-1.39-1.96-2.15-2.9-.09-.11.07-.2.15-.1,2.78,3.3,5.25,6.95,6.43,11.14.13.48.26.96.36,1.44.06-.43.13-.86.18-1.29.32-2.49.49-5.01.6-7.52.08-2.01.35-5.83-.72-8.42-.34-.83-.61-1.68-1.04-2.46-.8-1.46-1.82-2.75-2.94-3.97-.64-.69-1.31-1.36-2-1.99-.11-.1.01-.22.12-.12Z"/>
            <g>
              <path class="cls-6" d="M38.32,22.68c.01.27.02.53.04.8-1.41-.12-2.81-.41-4.16-.84-.26-.1-.52-.21-.78-.32-1.26-.53-2.48-1.15-3.6-1.93-.72-.5-1.39-1.08-1.97-1.74-.42-.54-.78-1.12-1.04-1.77-.7-1.74-.67-3.67-1.37-5.41-.36-.88-.88-1.68-1.52-2.36.81.14,1.64.18,2.44.21.76.1,1.52.13,2.28.19,1.54.12,3.07.45,4.51,1.02,1.9.76,3.78,2.16,4.86,3.98.49,1.01.76,2.12.72,3.24-.04,1.09-.24,2.18-.34,3.27-.05.55-.08,1.09-.06,1.64Z"/>
              <path class="cls-5" d="M29.01,18.08c1.79,1.58,4.3,2.44,6.65,2.63.14.01.24-.1.23-.24-.14-1.28-.68-2.5-1.34-3.59-1.2-2-2.87-3.63-4.73-5.01-1.05-.78-2.17-1.5-3.35-2.1.23.05.45.11.68.17,2.7.71,5.24,2.01,7.1,4.13,1.66,1.9,2.57,4.27,3.16,6.69.06.23.37.22.41-.01.2-1.03.45-2.07.49-3.13.06-1.6-.47-3.08-1.3-4.42.37.41.7.85.98,1.32.49,1.01.76,2.12.72,3.24-.04,1.09-.24,2.18-.34,3.27-.05.55-.08,1.09-.06,1.64.01.27.02.53.04.8-1.41-.12-2.81-.41-4.16-.84-.26-.1-.52-.21-.78-.32-1.26-.53-2.48-1.15-3.6-1.93-.72-.5-1.39-1.08-1.97-1.74-.42-.54-.78-1.12-1.04-1.77-.56-1.39-.65-2.89-1.02-4.32.96,1.91,1.58,4.06,3.23,5.52Z"/>
            </g>
            <g>
              <path class="cls-8" d="M36.25,43.46c0,.27.02.53.03.8-1.41-.13-2.82-.42-4.17-.85-.26-.1-.52-.21-.78-.32-1.25-.53-2.48-1.16-3.6-1.94-.72-.5-1.39-1.09-1.96-1.75-.42-.54-.78-1.13-1.04-1.77-.7-1.74-.65-3.68-1.35-5.42-.35-.88-.87-1.68-1.51-2.37.81.14,1.64.19,2.44.22.76.1,1.52.14,2.29.2,1.54.13,3.07.46,4.51,1.04,1.9.77,3.78,2.18,4.85,4,.49,1.01.75,2.12.71,3.25-.04,1.09-.24,2.18-.36,3.27-.06.55-.08,1.09-.06,1.64Z"/>
              <path class="cls-5" d="M26.94,38.82c1.79,1.59,4.29,2.46,6.65,2.65.14.01.24-.1.23-.24-.13-1.28-.67-2.5-1.33-3.6-1.2-2-2.86-3.64-4.72-5.03-1.04-.78-2.16-1.51-3.34-2.12.23.06.45.11.68.17,2.7.72,5.24,2.03,7.09,4.16,1.65,1.91,2.56,4.29,3.15,6.71.06.23.37.22.42,0,.2-1.04.46-2.07.5-3.13.06-1.6-.46-3.09-1.29-4.43.37.41.7.86.98,1.33.49,1.01.75,2.12.71,3.25-.04,1.09-.24,2.18-.36,3.27-.06.55-.08,1.09-.06,1.64,0,.27.02.53.03.8-1.41-.13-2.82-.42-4.17-.85-.26-.1-.52-.21-.78-.32-1.25-.53-2.48-1.16-3.6-1.94-.72-.5-1.39-1.09-1.96-1.75-.42-.54-.78-1.13-1.04-1.77-.56-1.39-.64-2.9-1.01-4.33.95,1.91,1.56,4.07,3.21,5.53Z"/>
            </g>
            <g>
              <path class="cls-6" d="M26.92,21.26c.73.16,1.48.2,2.23.23,1.23.05,2.42.22,3.57.71.2.09.4.18.6.28.77.42,1.45.97,2,1.71.69.93,1,2.01,1.37,3.09.18.52.4,1.06.68,1.56-.39.31-.89.46-1.39.53-1.04.15-2.18.05-3.2-.21-.07-.02-.14-.03-.2-.05-.34-.16-.68-.33-1.01-.51-.9-.5-1.76-1.1-2.51-1.81-.99-.93-1.79-2.12-2.39-3.35-.19-.46-.37-.93-.62-1.36-.17-.37-.36-.73-.58-1.07.46.15.96.21,1.45.25Z"/>
              <path class="cls-5" d="M25.67,21.07c.4.64.81,1.27,1.26,1.87.55.74,1.15,1.43,1.83,2.05.75.69,1.61,1.27,2.49,1.79.82.48,1.68.87,2.57,1.2.56.21,1.35.54,1.93.24.1-.05.15-.16.08-.26-.44-.63-.9-1.24-1.4-1.83-.82-.97-1.75-1.87-2.81-2.57-.95-.63-1.98-1.09-3.07-1.39.6-.12,1.23-.02,1.8.17,1.45.47,2.77,1.42,3.82,2.51.76.8,1.39,1.71,2.01,2.62.3.44.6.87.92,1.3.04.05.08.11.13.16-.37.25-.81.37-1.25.44-1.04.15-2.18.05-3.2-.21-.07-.02-.14-.03-.2-.05-.34-.16-.68-.33-1.01-.51-.9-.5-1.76-1.1-2.51-1.81-.99-.93-1.79-2.12-2.39-3.35-.19-.46-.37-.93-.62-1.36-.17-.37-.36-.73-.58-1.07.07.02.14.04.21.06Z"/>
              <path class="cls-6" d="M29.21,20.67s0,0,0,0c0,0,0,0,0,0,0,0,0,0,0,0Z"/>
            </g>
            <g>
              <path class="cls-8" d="M47.95,38.59s-.07.04-.11.07c-1.05.59-2.24.87-3.42,1.11-.71.14-1.5.27-2.13-.09-.52-.29-.83-.84-1.04-1.39-1-2.55-.5-5.75,1.72-7.49,2.11-1.65,4.94-2.04,7.41-2.88.6-.2,1.23-.44,1.87-.55-1.39,2.24-1.18,5-1.81,7.48-.39,1.54-1.1,2.91-2.49,3.75Z"/>
              <path class="cls-5" d="M42.26,31.46c-.15.26-.3.52-.43.79-.58,1.18-1.06,2.68-.48,3.95.25.53.75,1.11,1.4.87.56-.21.95-.81,1.3-1.26,1.37-1.74,2.89-3.36,4.36-5.02.71-.8,1.43-1.64,2.23-2.37-.03.03-.06.07-.09.1-.65.75-1.24,1.54-1.83,2.34-.66.89-1.38,1.73-2,2.65-.65.96-1.21,1.97-1.85,2.93-.5.75-1.17,1.61-1.22,2.54,0,.07.04.16.11.18.79.22,1.63-.03,2.36-.37,1.46-.67,2.68-1.81,3.68-3.05.22-.27.43-.55.63-.84-.39,1.52-1.1,2.85-2.47,3.68-.04.02-.07.04-.11.07-1.05.59-2.24.87-3.42,1.11-.71.14-1.5.27-2.13-.09-.52-.29-.83-.84-1.04-1.39-.88-2.25-.6-5.01,1.01-6.82Z"/>
            </g>
            <g>
              <path class="cls-8" d="M45.41,21.53s-.06.04-.1.06c-.9.51-1.93.75-2.95.96-.62.12-1.29.23-1.84-.08-.45-.25-.71-.73-.9-1.2-.86-2.2-.43-4.96,1.48-6.47,1.82-1.43,4.27-1.76,6.4-2.48.52-.18,1.06-.38,1.61-.48-1.2,1.93-1.02,4.32-1.56,6.46-.34,1.33-.95,2.51-2.15,3.23Z"/>
              <path class="cls-5" d="M40.5,15.38c-.13.23-.26.45-.37.69-.5,1.02-.92,2.31-.41,3.41.21.46.65.96,1.21.75.49-.18.82-.7,1.12-1.09,1.18-1.51,2.5-2.9,3.76-4.34.61-.69,1.23-1.41,1.92-2.04-.03.03-.05.06-.08.09-.56.64-1.07,1.33-1.58,2.02-.57.77-1.19,1.5-1.73,2.29-.56.83-1.05,1.7-1.6,2.53-.43.65-1.01,1.39-1.05,2.2,0,.06.03.14.1.15.69.19,1.41-.03,2.04-.32,1.26-.58,2.31-1.56,3.18-2.63.19-.23.37-.48.54-.73-.34,1.31-.95,2.46-2.13,3.18-.03.02-.06.04-.1.06-.9.51-1.93.75-2.95.96-.62.12-1.29.23-1.84-.08-.45-.25-.71-.73-.9-1.2-.76-1.95-.51-4.33.87-5.89Z"/>
            </g>
          </g>
          <g>
            <path class="cls-4" d="M40.97,26.9c-.1-.65-1.03-.3-1.29-.02-1.17,1.21-1.35,3.07-1.61,4.64-.35,2.11-3.55,24.77-3.82,27.08-.26,2.28-.59,4.56-.86,6.84-.21,1.86-.4,3.71-.56,5.58-.45-3.7-1.26-7.77-1.7-11.48-.43-3.58-2.19-17.49-3.23-19.09-.36-.56-1.5-.14-1.62,1.93-.2,3.52,3.34,26.57,4.15,34.73.86,8.65,1.48,47.83,1.64,73.69.98.62,2.11,1.01,3.28,1.06.36.01.71,0,1.05-.05-.47-20.85-1.25-60.89-.68-71.76.79-14.96,2.63-29.83,4.49-44.69.14-1.15.27-2.3.46-3.44.18-1.12.36-2.24.39-3.38.01-.55-.02-1.1-.1-1.64Z"/>
            <path class="cls-2" d="M30.2,69.58c-.15-3.63-.45-7.24-.88-10.84-.72-6.03-1.71-12.03-2.55-18.05-.24.35-.44.89-.49,1.69-.19,3.41,3.12,25.13,4.06,33.91,0-2.24-.05-4.48-.14-6.71Z"/>
            <path class="cls-2" d="M38.73,29.34c.09-.5.18-1.01.27-1.51-.58,1.12-.74,2.49-.94,3.69-.12.73-.59,3.94-1.15,7.9.59-3.36,1.22-6.72,1.82-10.08Z"/>
            <path class="cls-2" d="M32.73,70.28c.03,1.48.13,2.95.34,4.41.03-.14.07-.27.1-.41.84-3.64,1.16-7.38,1.36-11.1.17-3.36.24-6.72.46-10.08-.38,2.78-.67,4.88-.74,5.5-.26,2.28-.59,4.56-.86,6.84-.21,1.86-.4,3.71-.56,5.58-.03-.25-.06-.5-.1-.74Z"/>
            <path class="cls-2" d="M32.57,151.09c-.18-6.18-.46-12.35-.6-18.53-.11-4.87-.16-9.74-.28-14.61.18,11.27.31,23.02.37,32.85.17.1.33.2.51.29Z"/>
            <path class="cls-3" d="M28.01,46.14c.7,5.09,1.66,10.15,2.58,15.2.74,4.05,1.46,8.1,2.03,12.18-.04-1.94-.16-3.89-.27-5.83-.42-2.73-.92-5.53-1.23-8.15-.43-3.58-2.19-17.49-3.23-19.09-.12-.19-.33-.26-.56-.2.18,1.97.41,3.94.68,5.9Z"/>
            <path class="cls-3" d="M40.97,26.92c-.78,4.27-1.4,8.57-1.96,12.88-.65,4.94-1.22,9.89-1.89,14.83-.67,4.99-1.31,9.98-1.8,14.99-.69,7.11-1.14,14.24-1.34,21.37.01.19.02.39.03.58.2,4,.12,8.01.13,12.01.02,7.09.22,14.17.41,21.26.19,7.11.27,14.22.38,21.33.03,1.89.06,3.77.1,5.66.11,0,.21.02.32.02.36.01.71,0,1.05-.05-.47-20.85-1.25-60.89-.68-71.76.79-14.96,2.63-29.83,4.49-44.69.14-1.15.27-2.3.46-3.44.18-1.12.36-2.24.39-3.38.01-.54-.02-1.08-.09-1.62Z"/>
          </g>
          <g>
            <path class="cls-8" d="M43.75,32.31s-.06.06-.09.09c-.87.83-1.96,1.39-3.05,1.91-.66.31-1.39.62-2.09.43-.57-.16-1.01-.62-1.35-1.1-1.59-2.23-1.88-5.46-.15-7.68,1.64-2.11,4.3-3.17,6.49-4.59.53-.34,1.09-.72,1.68-.99-.8,2.51.07,5.14.06,7.7,0,1.59-.36,3.09-1.5,4.24Z"/>
            <path class="cls-5" d="M36.5,26.77c-.08.29-.16.58-.23.88-.28,1.29-.38,2.86.5,3.95.37.46,1,.9,1.57.51.49-.34.72-1.01.96-1.54.91-2.02,1.99-3.96,3.01-5.93.49-.95.99-1.93,1.59-2.84-.02.04-.04.08-.06.12-.45.88-.83,1.8-1.21,2.71-.43,1.02-.92,2.02-1.3,3.06-.4,1.09-.7,2.2-1.09,3.29-.3.85-.75,1.84-.57,2.76.01.07.07.14.15.14.82.02,1.58-.43,2.2-.93,1.26-1.01,2.16-2.4,2.84-3.85.15-.31.28-.64.41-.97-.02,1.57-.37,3.04-1.5,4.17-.03.03-.06.06-.09.09-.87.83-1.96,1.39-3.05,1.91-.66.31-1.39.62-2.09.43-.57-.16-1.01-.62-1.35-1.1-1.4-1.97-1.79-4.72-.67-6.86Z"/>
          </g>
          <g>
            <path class="cls-8" d="M33.14,45.77s-.06.06-.09.09c-.87.83-1.96,1.39-3.05,1.91-.66.31-1.39.62-2.09.43-.57-.16-1.01-.62-1.35-1.1-1.59-2.24-1.88-5.46-.15-7.68,1.64-2.11,4.3-3.17,6.49-4.59.53-.34,1.09-.72,1.68-.99-.8,2.51.07,5.14.06,7.7,0,1.59-.36,3.09-1.5,4.24Z"/>
            <path class="cls-5" d="M25.88,40.24c-.08.29-.16.58-.23.88-.28,1.29-.38,2.86.5,3.95.37.46,1,.9,1.57.51.5-.34.72-1.01.96-1.54.91-2.02,1.99-3.96,3.01-5.93.49-.95.99-1.93,1.59-2.84-.02.04-.04.08-.06.12-.45.88-.83,1.8-1.21,2.71-.43,1.02-.92,2.02-1.3,3.06-.4,1.09-.7,2.2-1.09,3.29-.3.85-.75,1.84-.57,2.76.01.07.07.14.15.14.82.02,1.58-.43,2.2-.93,1.26-1.01,2.16-2.4,2.84-3.85.15-.31.28-.64.41-.97-.02,1.57-.37,3.04-1.5,4.17-.03.03-.06.06-.09.09-.87.83-1.96,1.39-3.05,1.91-.66.31-1.39.62-2.09.43-.57-.16-1.01-.62-1.35-1.1-1.4-1.97-1.79-4.72-.67-6.86Z"/>
          </g>
          <g>
            <path class="cls-8" d="M28.5,33.56s-.06.06-.09.09c-.87.83-1.96,1.39-3.05,1.91-.66.31-1.39.62-2.09.43-.57-.16-1.01-.62-1.35-1.1-1.59-2.23-1.88-5.46-.15-7.68,1.64-2.11,4.3-3.17,6.49-4.59.53-.34,1.09-.72,1.68-.99-.8,2.51.07,5.14.06,7.7,0,1.59-.36,3.09-1.5,4.24Z"/>
            <path class="cls-5" d="M21.25,28.02c-.08.29-.16.58-.23.88-.28,1.29-.38,2.86.5,3.95.37.46,1,.9,1.57.51.49-.34.72-1.01.96-1.54.91-2.02,1.99-3.96,3.01-5.93.49-.95.99-1.93,1.59-2.84-.02.04-.04.08-.06.12-.45.88-.83,1.8-1.21,2.71-.43,1.02-.92,2.02-1.3,3.06-.4,1.09-.7,2.2-1.09,3.29-.3.85-.75,1.84-.57,2.76.01.07.07.14.15.14.82.02,1.58-.43,2.2-.93,1.26-1.01,2.16-2.4,2.84-3.85.15-.31.28-.64.41-.97-.02,1.57-.37,3.04-1.5,4.17-.03.03-.06.06-.09.09-.87.83-1.96,1.39-3.05,1.91-.66.31-1.39.62-2.09.43-.57-.16-1.01-.62-1.35-1.1-1.4-1.97-1.79-4.72-.67-6.86Z"/>
          </g>
          <g>
            <path class="cls-8" d="M26.07,62.92s.07,0,.11,0c1,.07,1.99-.15,2.96-.4.59-.15,1.22-.34,1.57-.84.28-.4.32-.93.28-1.42-.17-2.27-1.7-4.49-3.99-4.99-2.17-.48-4.44.26-6.59.52-.52.06-1.08.12-1.6.26,1.85,1.18,2.69,3.32,4.06,4.95.85,1.02,1.87,1.78,3.22,1.91Z"/>
            <path class="cls-5" d="M27.76,55.52c.21.14.41.29.61.44.86.67,1.76,1.62,1.78,2.79,0,.49-.16,1.1-.73,1.16-.5.05-1-.26-1.43-.47-1.66-.81-3.38-1.47-5.08-2.19-.82-.34-1.66-.71-2.53-.97.03.01.07.03.1.04.76.32,1.49.71,2.22,1.09.82.43,1.66.8,2.46,1.26.83.48,1.62,1.04,2.45,1.53.64.38,1.46.78,1.83,1.46.03.05.03.13-.02.17-.52.45-1.23.57-1.9.58-1.34.02-2.66-.39-3.86-.95-.26-.12-.52-.26-.78-.4.84.99,1.85,1.74,3.18,1.87.04,0,.07,0,.11,0,1,.07,1.99-.15,2.96-.4.59-.15,1.22-.34,1.57-.84.28-.4.32-.93.28-1.42-.15-2.01-1.36-3.97-3.22-4.75Z"/>
          </g>
        </g>
      </g>
    </g>
  </g>
</svg>